<?xml version="1.0" encoding="iso-8859-1"?>
<!-- Generator: Adobe Illustrator 19.0.0, SVG Export Plug-In . SVG Version: 6.00 Build 0)  -->
<svg version="1.1" id="Layer_1" xmlns="http://www.w3.org/2000/svg" xmlns:xlink="http://www.w3.org/1999/xlink" x="0px" y="0px"
	 viewBox="0 0 445.49 445.49" style="enable-background:new 0 0 445.49 445.49;" xml:space="preserve">
<g>
	<path style="fill:#F7B239;" d="M339.518,153.114c-7.79,0-14.1,6.32-14.1,14.1c0,7.79,6.31,14.1,14.1,14.1
		c7.78,0,14.1-6.31,14.1-14.1C353.618,159.434,347.298,153.114,339.518,153.114z M374.428,65.364
		c16.64,39.79,26.68,91.4,26.68,147.81c0,50.01-20.48,152.16-30.6,199.59l-1.22-0.27h-120.38c10.65-49.81,32.81-159.85,32.81-213.48
		c0-49.4-7.25-95.34-19.7-133.65H374.428z"/>
	<g style="opacity:0.25;">
		<path style="fill:#4D4D4D;" d="M374.428,65.364H335.43c16.64,39.79,26.68,91.4,26.68,147.81
			c0,49.917-20.403,151.775-30.542,199.32h37.721l1.22,0.27c10.12-47.43,30.6-149.58,30.6-199.59
			C401.108,156.764,391.068,105.154,374.428,65.364z"/>
	</g>
	<path style="fill:#3A88D6;" d="M369.178,42.054l5.25,23.3h-112.41c-2.65-8.18-5.54-16.02-8.66-23.46v-0.01l-2-8.88h106.51
		C363.288,33.004,367.988,36.764,369.178,42.054z"/>
	<path style="fill:#3A88D6;" d="M369.288,412.494l1.22,0.27c-3.33,15.56-5.53,25.23-5.53,25.23h-121.66v-0.01
		c0,0,2.22-9.73,5.59-25.49H369.288z"/>
	<path style="fill:#F7B239;" d="M216.248,135.184c-8.28,0-14.99,6.71-14.99,14.98c0,8.28,6.71,14.99,14.99,14.99
		s14.99-6.71,14.99-14.99C231.238,141.894,224.528,135.184,216.248,135.184z M109.858,135.184c-8.28,0-14.99,6.71-14.99,14.98
		c0,8.28,6.71,14.99,14.99,14.99c8.27,0,14.98-6.71,14.98-14.99C124.838,141.894,118.128,135.184,109.858,135.184z M262.018,65.364
		c12.45,38.31,19.7,84.25,19.7,133.65c0,53.63-22.16,163.67-32.81,213.48h-170.6l-1.06,0.23c-10.63-49.7-32.86-160-32.86-213.71
		c0-59.96,10.67-114.82,28.35-157.12h137.06h43.56c3.12,7.44,6.01,15.28,8.66,23.46V65.364z"/>
	<g style="opacity:0.25;">
		<path style="fill:#4D4D4D;" d="M262.018,65.364v-0.01c-2.65-8.18-5.54-16.02-8.66-23.46h-43.56h-17.937
			c3.12,7.44,6.01,15.28,8.66,23.46v0.01c6.882,21.177,12.166,44.694,15.524,69.83c0.068-0.001,0.135-0.01,0.203-0.01
			c8.28,0,14.99,6.71,14.99,14.98c0,7.326-5.256,13.414-12.202,14.721c0.771,11.153,1.185,22.541,1.185,34.129
			c0,53.63-22.16,163.67-32.81,213.48h61.497c10.65-49.81,32.81-159.85,32.81-213.48
			C281.718,149.614,274.468,103.674,262.018,65.364z"/>
		<path style="fill:#4D4D4D;" d="M77.248,412.724l1.06-0.23h-1.109C77.215,412.569,77.232,412.649,77.248,412.724z"/>
	</g>
	<path style="fill:#FFFFFF;" d="M78.516,299.062c-3.611,0-6.793-2.614-7.393-6.294c-6.791-41.655-10.234-73.198-10.234-93.754
		c0-8.813,0.246-17.712,0.731-26.451c0.23-4.136,3.775-7.297,7.904-7.072c4.136,0.229,7.302,3.768,7.072,7.904
		c-0.47,8.463-0.708,17.083-0.708,25.619c0,19.75,3.377,50.481,10.039,91.34c0.667,4.088-2.107,7.943-6.195,8.609
		C79.323,299.03,78.917,299.062,78.516,299.062z"/>
	<path style="fill:#FFFFFF;" d="M89.228,73.394c-0.49,0-0.98-0.05-1.47-0.15c-0.48-0.09-0.95-0.24-1.4-0.42
		c-0.45-0.19-0.89-0.42-1.3-0.69c-0.41-0.28-0.79-0.59-1.14-0.94c-0.34-0.34-0.65-0.73-0.93-1.14c-0.27-0.4-0.5-0.84-0.69-1.29
		c-0.19-0.45-0.33-0.93-0.43-1.4c-0.09-0.49-0.14-0.98-0.14-1.47s0.05-0.98,0.14-1.47c0.1-0.47,0.24-0.95,0.43-1.4
		c0.19-0.45,0.42-0.89,0.69-1.29c0.28-0.41,0.59-0.8,0.93-1.14c0.35-0.35,0.73-0.66,1.14-0.94c0.41-0.27,0.85-0.5,1.3-0.69
		c0.45-0.18,0.92-0.33,1.4-0.42c2.44-0.49,5.03,0.3,6.77,2.05c0.35,0.34,0.66,0.73,0.93,1.14c0.27,0.4,0.51,0.84,0.69,1.29
		c0.19,0.45,0.34,0.93,0.43,1.4c0.1,0.49,0.15,0.98,0.15,1.47s-0.05,0.98-0.15,1.47c-0.09,0.47-0.24,0.95-0.43,1.4
		c-0.18,0.45-0.42,0.89-0.69,1.29c-0.27,0.41-0.58,0.8-0.93,1.14C93.128,72.594,91.198,73.394,89.228,73.394z"/>
	<path style="fill:#FFFFFF;" d="M72.088,148.01c-0.319,0-0.641-0.021-0.965-0.062c-4.108-0.528-7.011-4.287-6.483-8.395
		c2.302-17.91,5.647-35.216,9.942-51.437c1.06-4.004,5.167-6.39,9.169-5.331c4.004,1.06,6.391,5.166,5.331,9.17
		c-4.127,15.59-7.345,32.248-9.564,49.51C79.031,145.249,75.804,148.01,72.088,148.01z"/>
	<path style="fill:#3A88D6;" d="M251.358,33.004l2,8.88h-43.56H72.738l5.58-24.76c1.27-5.63,6.27-9.62,12.03-9.62h145.4
		c5.77,0,10.77,3.99,12.03,9.62L251.358,33.004z"/>
	<path style="fill:#3A88D6;" d="M78.308,412.494h170.6c-3.37,15.76-5.59,25.49-5.59,25.49H82.788c0,0-2.2-9.63-5.54-25.26
		L78.308,412.494z"/>
	<path style="fill:#FFFFFF;" d="M93.748,32.514c-0.49,0-0.98-0.05-1.46-0.15c-0.48-0.09-0.96-0.24-1.41-0.42
		c-0.45-0.19-0.89-0.42-1.29-0.69c-0.41-0.28-0.8-0.59-1.14-0.94c-0.35-0.34-0.66-0.73-0.94-1.14c-0.27-0.4-0.5-0.84-0.69-1.29
		c-0.18-0.45-0.33-0.93-0.42-1.4c-0.1-0.49-0.15-0.98-0.15-1.47s0.05-0.98,0.15-1.47c0.09-0.47,0.24-0.95,0.42-1.4
		c0.19-0.45,0.42-0.89,0.69-1.29c0.28-0.41,0.59-0.8,0.94-1.14c0.34-0.35,0.73-0.66,1.14-0.94c0.4-0.27,0.84-0.5,1.29-0.69
		c0.45-0.18,0.93-0.33,1.41-0.42c0.96-0.2,1.96-0.2,2.93,0c0.47,0.09,0.95,0.24,1.4,0.42c0.45,0.19,0.89,0.42,1.29,0.69
		c0.41,0.28,0.8,0.59,1.14,0.94c0.35,0.34,0.66,0.73,0.94,1.14c0.27,0.4,0.5,0.84,0.68,1.29c0.19,0.45,0.34,0.93,0.43,1.4
		c0.1,0.49,0.15,0.98,0.15,1.47s-0.05,0.98-0.15,1.47c-0.09,0.47-0.24,0.95-0.43,1.4c-0.18,0.45-0.41,0.89-0.68,1.29
		c-0.28,0.41-0.59,0.8-0.94,1.14c-0.34,0.35-0.73,0.66-1.14,0.94c-0.4,0.27-0.84,0.5-1.29,0.69c-0.45,0.18-0.93,0.33-1.4,0.42
		C94.728,32.464,94.238,32.514,93.748,32.514z"/>
	<path style="fill:#CC582F;" d="M339.518,153.114c7.78,0,14.1,6.32,14.1,14.1c0,7.79-6.32,14.1-14.1,14.1
		c-7.79,0-14.1-6.31-14.1-14.1C325.418,159.434,331.728,153.114,339.518,153.114z"/>
	<path style="fill:#CC582F;" d="M216.248,135.184c8.28,0,14.99,6.71,14.99,14.98c0,8.28-6.71,14.99-14.99,14.99
		s-14.99-6.71-14.99-14.99C201.258,141.894,207.968,135.184,216.248,135.184z"/>
	<path style="fill:#CC582F;" d="M109.858,135.184c8.27,0,14.98,6.71,14.98,14.98c0,8.28-6.71,14.99-14.98,14.99
		c-8.28,0-14.99-6.71-14.99-14.99C94.868,141.894,101.578,135.184,109.858,135.184z"/>
	<path style="fill:#333333;" d="M381.459,62.736c-0.029-0.078-4.965-22.332-4.965-22.332c-1.974-8.776-9.633-14.905-18.627-14.905
		H257.356l-2.259-10.029C253.044,6.362,245.089,0,235.752,0H90.35c-9.338,0-17.293,6.362-19.345,15.472l-5.438,24.143
		C47.069,84.171,36.883,140.744,36.883,199.016c0,70.63,37.015,233.731,38.59,240.64c0.778,3.412,3.813,5.832,7.312,5.832h131.142
		c0.01,0,0.019,0.001,0.029,0.001h151.02c3.5,0,6.534-2.42,7.313-5.832c1.482-6.501,36.317-159.988,36.317-226.488
		C408.607,158.141,398.967,104.732,381.459,62.736z M364.472,404.99H258.164c3.397-16.129,7.573-36.607,11.724-58.623
		c12.827-68.031,19.331-117.606,19.331-147.35c0-44.589-5.968-88.178-17.055-126.156h52.655l6.636,74.323
		c-7.927,3.202-13.539,10.972-13.539,20.033c0,11.91,9.689,21.599,21.599,21.599c11.91,0,21.6-9.689,21.6-21.599
		c0-9.473-6.133-17.536-14.635-20.441l-6.6-73.916h29.503c15.643,39.529,24.225,89.112,24.225,140.31
		C393.607,260.173,374.894,355.527,364.472,404.99z M346.114,167.216c0,3.639-2.961,6.599-6.6,6.599s-6.599-2.96-6.599-6.599
		s2.96-6.599,6.599-6.599S346.114,163.577,346.114,167.216z M361.86,43.698l3.188,14.151h-97.636
		c-2.039-5.958-4.212-11.747-6.516-17.35h96.971C359.795,40.5,361.437,41.814,361.86,43.698z M90.35,15h145.402
		c2.274,0,4.212,1.55,4.712,3.768l3.517,15.615H82.121l3.517-15.615C86.138,16.55,88.076,15,90.35,15z M77.781,49.395h32.204
		l-7.089,79.394c-9.003,2.938-15.528,11.409-15.528,21.379c0,12.399,10.087,22.487,22.487,22.487s22.487-10.088,22.487-22.487
		c0-9.557-5.996-17.736-14.421-20.985l7.124-79.788h76.013l7.124,79.788c-8.426,3.249-14.422,11.428-14.422,20.985
		c0,12.399,10.087,22.487,22.487,22.487c12.399,0,22.487-10.088,22.487-22.487c0-9.971-6.525-18.442-15.528-21.379l-7.088-79.394
		h32.204c16.722,42.142,25.897,95.031,25.897,149.622c0,50.637-20.406,153.987-31.396,205.973H83.279
		c-10.99-51.986-31.396-155.336-31.396-205.973C51.883,144.425,61.058,91.536,77.781,49.395z M109.855,142.681
		c4.128,0,7.487,3.358,7.487,7.487s-3.358,7.487-7.487,7.487s-7.487-3.359-7.487-7.487S105.727,142.681,109.855,142.681z
		 M223.734,150.168c0,4.128-3.358,7.487-7.487,7.487s-7.487-3.359-7.487-7.487s3.358-7.487,7.487-7.487
		S223.734,146.039,223.734,150.168z M86.491,419.99h153.12c-0.926,4.267-1.707,7.82-2.302,10.499H88.793
		C88.198,427.809,87.417,424.256,86.491,419.99z M252.674,430.49c0.64-2.903,1.412-6.433,2.291-10.5h106.303
		c-0.924,4.267-1.704,7.816-2.299,10.5H252.674z"/>
</g>
<g>
</g>
<g>
</g>
<g>
</g>
<g>
</g>
<g>
</g>
<g>
</g>
<g>
</g>
<g>
</g>
<g>
</g>
<g>
</g>
<g>
</g>
<g>
</g>
<g>
</g>
<g>
</g>
<g>
</g>
</svg>
