<?xml version="1.0" encoding="iso-8859-1"?>
<!-- Generator: Adobe Illustrator 19.0.0, SVG Export Plug-In . SVG Version: 6.00 Build 0)  -->
<svg version="1.1" id="Layer_1" xmlns="http://www.w3.org/2000/svg" xmlns:xlink="http://www.w3.org/1999/xlink" x="0px" y="0px"
	 viewBox="0 0 411.77 411.77" style="enable-background:new 0 0 411.77 411.77;" xml:space="preserve">
<g>
	<g>
		<polygon style="fill:#E6E6E6;" points="404.27,317.575 404.27,356.625 7.5,356.625 7.5,317.575 23.12,317.575 388.65,317.575 		
			"/>
		<rect x="7.5" y="55.145" style="fill:#E6E6E6;" width="396.77" height="39.05"/>
		<rect x="337.48" y="55.145" style="opacity:0.25;fill:#4D4D4D;" width="66.79" height="39.05"/>
		<rect x="337.48" y="317.575" style="opacity:0.25;fill:#4D4D4D;" width="66.79" height="39.05"/>
		<rect x="23.12" y="94.195" style="fill:#F95428;" width="365.53" height="223.38"/>
		<rect x="322.291" y="94.195" style="opacity:0.25;fill:#4D4D4D;" width="66.359" height="223.38"/>
		<path style="fill:#F7B239;" d="M395.236,97.787l-13.168-7.183l-54.338,99.619l-54.338-99.619l-6.584,3.591l-6.584-3.591
			l-54.338,99.619L151.55,90.604l-6.584,3.591l-6.584-3.591l-54.338,99.619L29.706,90.604l-13.168,7.183l58.963,108.099
			L16.538,313.984l13.168,7.183l54.338-99.619l54.338,99.619l6.584-3.591l6.584,3.591l54.337-99.619l54.338,99.619l6.584-3.591
			l6.584,3.591l54.338-99.619l54.338,99.619l13.168-7.183l-58.963-108.099L395.236,97.787z M144.965,301.914l-52.379-96.028
			l52.379-96.028l52.379,96.028L144.965,301.914z M266.809,301.914l-52.379-96.028l52.379-96.028l52.379,96.028L266.809,301.914z"/>
		<path style="fill:#333333;" d="M404.27,101.695c4.142,0,7.5-3.358,7.5-7.5v-39.05c0-4.142-3.358-7.5-7.5-7.5H7.5
			c-4.142,0-7.5,3.358-7.5,7.5v39.05c0,4.142,3.358,7.5,7.5,7.5h8.12v208.38H7.5c-4.142,0-7.5,3.358-7.5,7.5v39.05
			c0,4.142,3.358,7.5,7.5,7.5h396.77c4.142,0,7.5-3.358,7.5-7.5v-39.05c0-4.142-3.358-7.5-7.5-7.5h-8.12v-208.38H404.27z M15,62.645
			h381.77v24.05H15V62.645z M381.15,101.695v208.38H30.62v-208.38H381.15z M396.77,349.125H15v-24.05h381.77V349.125z"/>
	</g>
	<path style="fill:#FFFFFF;" d="M57.22,120.985c-0.48,0-0.98-0.05-1.46-0.14c-0.48-0.1-0.95-0.24-1.4-0.43
		c-0.46-0.19-0.89-0.42-1.3-0.69c-0.41-0.27-0.79-0.59-1.14-0.93c-0.34-0.35-0.66-0.73-0.93-1.14c-0.27-0.41-0.5-0.84-0.69-1.3
		c-0.19-0.45-0.33-0.92-0.43-1.4c-0.1-0.48-0.15-0.98-0.15-1.47c0-0.49,0.05-0.98,0.15-1.46c0.1-0.48,0.24-0.95,0.43-1.41
		c0.19-0.45,0.42-0.88,0.69-1.29s0.59-0.79,0.93-1.14c0.35-0.35,0.73-0.66,1.14-0.93c0.41-0.27,0.84-0.51,1.3-0.69
		c0.45-0.19,0.92-0.33,1.4-0.43c2.44-0.49,5.02,0.31,6.77,2.05c0.34,0.35,0.66,0.73,0.93,1.14s0.5,0.84,0.69,1.29
		c0.19,0.46,0.33,0.93,0.43,1.41c0.09,0.48,0.14,0.98,0.14,1.46c0,1.98-0.8,3.91-2.19,5.31
		C61.13,120.185,59.2,120.985,57.22,120.985z"/>
	<path style="fill:#FFFFFF;" d="M27.52,80.895c-0.49,0-0.99-0.05-1.47-0.14c-0.48-0.1-0.95-0.24-1.4-0.43
		c-0.46-0.19-0.89-0.42-1.3-0.69c-0.41-0.27-0.79-0.59-1.14-0.93c-0.34-0.35-0.66-0.73-0.93-1.14c-0.27-0.41-0.5-0.84-0.69-1.3
		c-0.19-0.45-0.33-0.92-0.43-1.4c-0.09-0.48-0.14-0.98-0.14-1.47c0-0.49,0.05-0.98,0.14-1.46c0.1-0.48,0.24-0.95,0.43-1.41
		c0.19-0.45,0.42-0.88,0.69-1.29c0.27-0.41,0.59-0.79,0.93-1.14c0.35-0.35,0.73-0.66,1.14-0.93c0.41-0.27,0.84-0.5,1.3-0.69
		c0.45-0.19,0.92-0.33,1.4-0.43c2.44-0.49,5.03,0.31,6.77,2.05c0.35,0.35,0.66,0.73,0.93,1.14c0.27,0.41,0.5,0.84,0.69,1.29
		c0.19,0.46,0.33,0.93,0.43,1.41c0.1,0.48,0.15,0.97,0.15,1.46c0,0.49-0.05,0.99-0.15,1.47c-0.1,0.48-0.24,0.95-0.43,1.4
		c-0.19,0.46-0.42,0.89-0.69,1.3c-0.27,0.41-0.59,0.79-0.93,1.14c-0.35,0.34-0.73,0.66-1.14,0.93c-0.41,0.27-0.84,0.5-1.3,0.69
		c-0.45,0.19-0.92,0.33-1.4,0.43C28.5,80.845,28.01,80.895,27.52,80.895z"/>
	<path style="fill:#FFFFFF;" d="M27.52,343.385c-0.49,0-0.99-0.05-1.47-0.15c-0.48-0.09-0.95-0.24-1.4-0.42
		c-0.46-0.19-0.89-0.42-1.3-0.69c-0.41-0.28-0.79-0.59-1.14-0.94c-0.34-0.34-0.66-0.72-0.93-1.14c-0.27-0.4-0.5-0.84-0.69-1.29
		c-0.19-0.45-0.33-0.93-0.43-1.4c-0.09-0.49-0.14-0.98-0.14-1.47c0-0.49,0.05-0.98,0.14-1.47c0.1-0.47,0.24-0.95,0.43-1.4
		s0.42-0.89,0.69-1.29c0.27-0.41,0.59-0.8,0.93-1.14c0.35-0.35,0.73-0.66,1.14-0.93c0.41-0.27,0.84-0.51,1.3-0.69
		c0.45-0.19,0.92-0.34,1.4-0.43c2.44-0.5,5.03,0.31,6.77,2.05c0.35,0.34,0.66,0.73,0.93,1.14c0.27,0.4,0.5,0.84,0.69,1.29
		s0.33,0.93,0.43,1.4c0.1,0.49,0.15,0.98,0.15,1.47c0,0.49-0.05,0.98-0.15,1.47c-0.1,0.47-0.24,0.95-0.43,1.4
		c-0.19,0.45-0.42,0.89-0.69,1.29c-0.27,0.42-0.59,0.8-0.93,1.14c-0.35,0.35-0.73,0.66-1.14,0.94c-0.41,0.27-0.84,0.5-1.3,0.69
		c-0.45,0.18-0.92,0.33-1.4,0.42C28.5,343.334,28.01,343.385,27.52,343.385z"/>
	<path style="fill:#FFFFFF;" d="M111.224,120.988H77.657c-4.142,0-7.5-3.358-7.5-7.5s3.358-7.5,7.5-7.5h33.567
		c4.142,0,7.5,3.358,7.5,7.5S115.366,120.988,111.224,120.988z"/>
	<path style="fill:#FFFFFF;" d="M218.39,120.988h-33c-4.142,0-7.5-3.358-7.5-7.5s3.358-7.5,7.5-7.5h33c4.142,0,7.5,3.358,7.5,7.5
		S222.532,120.988,218.39,120.988z"/>
</g>
<g>
</g>
<g>
</g>
<g>
</g>
<g>
</g>
<g>
</g>
<g>
</g>
<g>
</g>
<g>
</g>
<g>
</g>
<g>
</g>
<g>
</g>
<g>
</g>
<g>
</g>
<g>
</g>
<g>
</g>
</svg>
