<?xml version="1.0" encoding="iso-8859-1"?>
<!-- Generator: Adobe Illustrator 19.0.0, SVG Export Plug-In . SVG Version: 6.00 Build 0)  -->
<svg version="1.1" id="Layer_1" xmlns="http://www.w3.org/2000/svg" xmlns:xlink="http://www.w3.org/1999/xlink" x="0px" y="0px"
	 viewBox="0 0 442 442" style="enable-background:new 0 0 442 442;" xml:space="preserve">
<g>
	<path style="fill:#F7B239;" d="M87.003,254.499c10.47,0,19,8.52,19,19c0,10.48-8.53,19-19,19c-10.48,0-19-8.52-19-19
		C68.003,263.019,76.523,254.499,87.003,254.499z"/>
	<path style="fill:#F7B239;" d="M355.003,254.499c10.47,0,19,8.52,19,19c0,10.48-8.53,19-19,19c-10.48,0-19-8.52-19-19
		C336.003,263.019,344.523,254.499,355.003,254.499z"/>
	<rect x="376.503" y="63.499" style="fill:#F7B239;" width="30.5" height="28"/>
	<path style="fill:#808080;" d="M434.503,91.499v287h-119.47l-22.86-31.32h-17.17V91.499h71h30.5h30.5H434.503z M409.003,273.499
		c0-29.82-24.18-54-54-54c-29.83,0-54,24.18-54,54c0,29.82,24.17,54,54,54C384.823,327.499,409.003,303.319,409.003,273.499z"/>
	<rect x="167.003" y="91.499" style="fill:#808080;" width="108" height="255.68"/>
	<path style="fill:#808080;" d="M167.003,91.499v255.68h-17.18l-22.86,31.32H7.503v-287h27.5h30.5h30.5H167.003z M141.003,273.499
		c0-29.82-24.18-54-54-54c-29.83,0-54,24.18-54,54c0,29.82,24.17,54,54,54C116.823,327.499,141.003,303.319,141.003,273.499z"/>
	<path style="fill:#4D4D4D;" d="M87.003,219.499c29.82,0,54,24.18,54,54c0,29.82-24.18,54-54,54c-29.83,0-54-24.18-54-54
		C33.003,243.679,57.173,219.499,87.003,219.499z M106.003,273.499c0-10.48-8.53-19-19-19c-10.48,0-19,8.52-19,19
		c0,10.48,8.52,19,19,19C97.473,292.499,106.003,283.979,106.003,273.499z"/>
	<path style="fill:#FFFFFF;" d="M48.003,280.999c-4.143,0-7.5-3.358-7.5-7.5c0-25.64,20.859-46.5,46.5-46.5
		c4.143,0,7.5,3.358,7.5,7.5s-3.357,7.5-7.5,7.5c-17.369,0-31.5,14.131-31.5,31.5C55.503,277.641,52.146,280.999,48.003,280.999z"/>
	<path style="fill:#4D4D4D;" d="M355.003,219.499c29.82,0,54,24.18,54,54c0,29.82-24.18,54-54,54c-29.83,0-54-24.18-54-54
		C301.003,243.679,325.173,219.499,355.003,219.499z M374.003,273.499c0-10.48-8.53-19-19-19c-10.48,0-19,8.52-19,19
		c0,10.48,8.52,19,19,19C365.473,292.499,374.003,283.979,374.003,273.499z"/>
	<g>
		<path style="fill:#333333;" d="M434.5,84h-20V63.5c0-4.142-3.357-7.5-7.5-7.5h-30.5c-4.143,0-7.5,3.358-7.5,7.5V84h-15.5v-8.5
			c0-4.142-3.357-7.5-7.5-7.5s-7.5,3.358-7.5,7.5V84h-235v-8.5c0-4.142-3.357-7.5-7.5-7.5s-7.5,3.358-7.5,7.5V84H73v-8.5
			c0-4.142-3.357-7.5-7.5-7.5S58,71.358,58,75.5V84H42.5v-8.5c0-4.142-3.357-7.5-7.5-7.5s-7.5,3.358-7.5,7.5V84h-20
			C3.357,84,0,87.358,0,91.5v287c0,4.142,3.357,7.5,7.5,7.5h119.465c2.396,0,4.646-1.144,6.059-3.079l20.612-28.246h134.729
			l20.612,28.246c1.412,1.935,3.663,3.079,6.059,3.079H434.5c4.143,0,7.5-3.358,7.5-7.5v-287C442,87.358,438.643,84,434.5,84z
			 M384,71h15.5v13H384V71z M267.5,99v240.676h-93V99H267.5z M149.824,339.676c-2.396,0-4.646,1.144-6.059,3.079L123.153,371H15V99
			h144.5v240.676H149.824z M427,371H318.847l-20.612-28.245c-1.412-1.935-3.663-3.079-6.059-3.079H282.5V99H427V371z"/>
		<path style="fill:#333333;" d="M87,212c-33.911,0-61.5,27.589-61.5,61.5S53.089,335,87,335s61.5-27.589,61.5-61.5
			S120.911,212,87,212z M87,320c-25.641,0-46.5-20.86-46.5-46.5S61.359,227,87,227s46.5,20.86,46.5,46.5S112.641,320,87,320z"/>
		<path style="fill:#333333;" d="M87,247c-14.612,0-26.5,11.888-26.5,26.5S72.388,300,87,300s26.5-11.888,26.5-26.5
			S101.612,247,87,247z M87,285c-6.341,0-11.5-5.159-11.5-11.5S80.659,262,87,262s11.5,5.159,11.5,11.5S93.341,285,87,285z"/>
		<path style="fill:#333333;" d="M355,212c-33.911,0-61.5,27.589-61.5,61.5S321.089,335,355,335s61.5-27.589,61.5-61.5
			S388.911,212,355,212z M355,320c-25.641,0-46.5-20.86-46.5-46.5S329.359,227,355,227s46.5,20.86,46.5,46.5S380.641,320,355,320z"
			/>
		<path style="fill:#333333;" d="M355,247c-14.612,0-26.5,11.888-26.5,26.5S340.388,300,355,300s26.5-11.888,26.5-26.5
			S369.612,247,355,247z M355,285c-6.341,0-11.5-5.159-11.5-11.5S348.659,262,355,262s11.5,5.159,11.5,11.5S361.341,285,355,285z"/>
		<path style="fill:#333333;" d="M32.5,122h18c4.143,0,7.5-3.358,7.5-7.5s-3.357-7.5-7.5-7.5h-18c-4.143,0-7.5,3.358-7.5,7.5
			S28.357,122,32.5,122z"/>
		<path style="fill:#333333;" d="M32.5,145.333h18c4.143,0,7.5-3.358,7.5-7.5s-3.357-7.5-7.5-7.5h-18c-4.143,0-7.5,3.358-7.5,7.5
			S28.357,145.333,32.5,145.333z"/>
		<path style="fill:#333333;" d="M32.5,168.667h18c4.143,0,7.5-3.358,7.5-7.5s-3.357-7.5-7.5-7.5h-18c-4.143,0-7.5,3.358-7.5,7.5
			S28.357,168.667,32.5,168.667z"/>
		<path style="fill:#333333;" d="M32.5,192h18c4.143,0,7.5-3.358,7.5-7.5s-3.357-7.5-7.5-7.5h-18c-4.143,0-7.5,3.358-7.5,7.5
			S28.357,192,32.5,192z"/>
		<path style="fill:#333333;" d="M130.572,117.369c1.17,2.763,3.914,4.633,6.931,4.63c3.059-0.004,5.871-1.931,6.983-4.776
			c2.451-6.272-4.306-12.367-10.3-9.438C130.701,109.488,129.062,113.78,130.572,117.369
			C130.763,117.819,130.383,116.919,130.572,117.369z"/>
		<path style="fill:#333333;" d="M130.572,140.699c1.177,2.844,4.041,4.693,7.112,4.626c3.158-0.068,5.989-2.204,6.955-5.203
			c2.022-6.274-4.787-11.91-10.59-8.937C130.651,132.926,129.085,137.168,130.572,140.699
			C130.763,141.159,130.383,140.249,130.572,140.699z"/>
		<path style="fill:#333333;" d="M130.572,164.039c1.202,2.839,4.139,4.752,7.23,4.622c3.038-0.127,5.767-2.182,6.775-5.043
			c1.014-2.882,0.089-6.204-2.236-8.178c-2.475-2.101-6.116-2.289-8.855-0.59c-3.156,1.959-4.19,5.949-2.86,9.314"/>
		<path style="fill:#333333;" d="M130.572,187.369c1.154,2.725,3.806,4.561,6.775,4.627c3.188,0.07,6.137-1.971,7.209-4.969
			c2.281-6.379-4.78-12.391-10.721-9.065C130.579,179.784,129.118,183.912,130.572,187.369
			C130.763,187.819,130.383,186.919,130.572,187.369z"/>
		<path style="fill:#333333;" d="M108.572,117.369c0.385,0.908,0.934,1.733,1.62,2.44c2.249,2.18,5.662,2.819,8.514,1.47
			c2.688-1.272,4.409-4.117,4.29-7.09c-0.248-6.18-7.849-9.411-12.48-5.293C108.172,110.981,107.351,114.466,108.572,117.369
			C108.763,117.819,108.383,116.919,108.572,117.369z"/>
		<path style="fill:#333333;" d="M108.572,140.699c0.378,0.914,0.932,1.732,1.62,2.44c4.665,4.528,12.829,1.289,12.811-5.31
			c-0.018-6.583-8.133-9.835-12.811-5.3C108.109,134.675,107.4,137.915,108.572,140.699
			C108.763,141.159,108.383,140.249,108.572,140.699z"/>
		<path style="fill:#333333;" d="M108.572,164.039c1.203,2.841,4.143,4.746,7.233,4.621c3.068-0.124,5.825-2.227,6.804-5.13
			c0.974-2.887,0.001-6.188-2.33-8.137c-2.477-2.071-6.086-2.232-8.806-0.537c-3.147,1.961-4.177,5.946-2.848,9.307"/>
		<path style="fill:#333333;" d="M108.572,187.369c0.385,0.908,0.934,1.733,1.62,2.44c2.249,2.18,5.662,2.819,8.514,1.47
			c2.688-1.272,4.409-4.117,4.29-7.09c-0.248-6.18-7.849-9.411-12.48-5.293C108.172,180.981,107.351,184.466,108.572,187.369
			C108.763,187.819,108.383,186.919,108.572,187.369z"/>
		<path style="fill:#333333;" d="M384,114.5c0,4.142,3.357,7.5,7.5,7.5h18c4.143,0,7.5-3.358,7.5-7.5s-3.357-7.5-7.5-7.5h-18
			C387.357,107,384,110.358,384,114.5z"/>
		<path style="fill:#333333;" d="M409.5,130.333h-18c-4.143,0-7.5,3.358-7.5,7.5s3.357,7.5,7.5,7.5h18c4.143,0,7.5-3.358,7.5-7.5
			S413.643,130.333,409.5,130.333z"/>
		<path style="fill:#333333;" d="M409.5,153.667h-18c-4.143,0-7.5,3.358-7.5,7.5s3.357,7.5,7.5,7.5h18c4.143,0,7.5-3.358,7.5-7.5
			S413.643,153.667,409.5,153.667z"/>
		<path style="fill:#333333;" d="M409.5,177h-18c-4.143,0-7.5,3.358-7.5,7.5s3.357,7.5,7.5,7.5h18c4.143,0,7.5-3.358,7.5-7.5
			S413.643,177,409.5,177z"/>
		<path style="fill:#333333;" d="M297.572,117.369c1.257,2.969,4.317,4.877,7.551,4.604c2.902-0.246,5.448-2.207,6.433-4.946
			c2.282-6.346-4.684-12.274-10.588-9.136C297.624,109.668,296.097,113.864,297.572,117.369
			C297.763,117.819,297.383,116.919,297.572,117.369z"/>
		<path style="fill:#333333;" d="M297.572,140.699c0.378,0.914,0.932,1.732,1.62,2.44c2.356,2.287,5.926,2.855,8.84,1.305
			c2.631-1.399,4.244-4.367,3.933-7.344c-0.651-6.218-8.314-8.894-12.773-4.572C297.109,134.675,296.4,137.915,297.572,140.699
			C297.763,141.159,297.383,140.249,297.572,140.699z"/>
		<path style="fill:#333333;" d="M300.333,167.399c5.236,3.447,12.408-0.887,11.609-7.149c-0.782-6.132-8.355-8.651-12.75-4.391
			C295.97,159.179,296.414,164.819,300.333,167.399z"/>
		<path style="fill:#333333;" d="M297.572,187.369c2.019,4.768,8.536,6.236,12.23,2.43c4.134-4.018,1.984-11.18-3.482-12.572
			C300.483,175.741,295.23,181.803,297.572,187.369C297.763,187.819,297.383,186.919,297.572,187.369z"/>
		<path style="fill:#333333;" d="M319.572,117.369c1.197,2.828,4.026,4.704,7.114,4.625c3.012-0.077,5.713-1.996,6.803-4.796
			c1.141-2.932,0.266-6.358-2.121-8.401c-2.425-2.075-5.982-2.352-8.723-0.734C319.504,109.92,318.157,114.007,319.572,117.369
			C319.763,117.819,319.383,116.919,319.572,117.369z"/>
		<path style="fill:#333333;" d="M319.572,140.699c0.378,0.914,0.932,1.732,1.62,2.44c2.931,2.845,7.689,2.91,10.61,0
			c2.508-2.498,2.876-6.527,0.93-9.47c-2.023-3.059-6.129-4.174-9.435-2.61C319.75,132.737,318.038,137.057,319.572,140.699
			C319.763,141.159,319.383,140.249,319.572,140.699z"/>
		<path style="fill:#333333;" d="M319.572,164.039c1.271,3.002,4.399,4.919,7.664,4.592c3.13-0.313,5.761-2.606,6.533-5.644
			c0.804-3.16-0.622-6.584-3.418-8.253c-2.947-1.759-6.713-1.246-9.159,1.125C319.095,158.019,318.419,161.24,319.572,164.039
			C319.763,164.489,319.383,163.579,319.572,164.039z"/>
		<path style="fill:#333333;" d="M319.572,187.369c1.197,2.828,4.026,4.704,7.114,4.625c3.012-0.077,5.713-1.996,6.803-4.796
			c2.542-6.528-4.861-12.687-10.844-9.126C319.51,179.939,318.152,183.994,319.572,187.369
			C319.763,187.819,319.383,186.919,319.572,187.369z"/>
		<path style="fill:#333333;" d="M198.5,130h45c4.143,0,7.5-3.358,7.5-7.5s-3.357-7.5-7.5-7.5h-45c-4.143,0-7.5,3.358-7.5,7.5
			S194.357,130,198.5,130z"/>
		<path style="fill:#333333;" d="M198.5,155h45c4.143,0,7.5-3.358,7.5-7.5s-3.357-7.5-7.5-7.5h-45c-4.143,0-7.5,3.358-7.5,7.5
			S194.357,155,198.5,155z"/>
		<path style="fill:#333333;" d="M243.5,165h-45c-4.143,0-7.5,3.358-7.5,7.5s3.357,7.5,7.5,7.5h45c4.143,0,7.5-3.358,7.5-7.5
			S247.643,165,243.5,165z"/>
		<path style="fill:#333333;" d="M208.533,211.149c-3.031,0.631-5.408,3.054-5.926,6.115c-0.553,3.27,1.196,6.601,4.19,8.015
			c2.838,1.34,6.286,0.729,8.505-1.48c2.243-2.233,2.819-5.754,1.435-8.59C215.268,212.199,211.821,210.488,208.533,211.149"/>
		<path style="fill:#333333;" d="M216.923,238.969c-2.027-4.895-8.462-6.093-12.23-2.44c-4.259,4.387-1.743,11.965,4.388,12.749
			C214.66,249.991,219.109,244.163,216.923,238.969C216.732,238.509,217.112,239.419,216.923,238.969z"/>
		<path style="fill:#333333;" d="M208.533,257.809c-3.14,0.651-5.568,3.243-5.971,6.428c-0.412,3.257,1.417,6.447,4.403,7.777
			c2.857,1.272,6.273,0.6,8.44-1.652c2.2-2.285,2.707-5.812,1.261-8.626C215.161,258.804,211.771,257.158,208.533,257.809"/>
		<path style="fill:#333333;" d="M216.923,285.629c-1.163-2.748-3.867-4.583-6.858-4.622c-3.293-0.042-6.279,2.177-7.24,5.315
			c-0.893,2.918,0.148,6.176,2.531,8.065c2.497,1.98,6.08,2.12,8.741,0.388C217.078,292.835,218.307,288.918,216.923,285.629
			C216.732,285.179,217.112,286.079,216.923,285.629z"/>
		<path style="fill:#333333;" d="M238.923,215.629c-1.217-2.876-4.147-4.781-7.29-4.621c-3.274,0.167-6.1,2.503-6.908,5.671
			c-0.723,2.835,0.344,5.896,2.63,7.708c2.595,2.057,6.375,2.123,9.05,0.179C239.173,222.556,240.254,218.793,238.923,215.629
			C238.732,215.179,239.112,216.079,238.923,215.629z"/>
		<path style="fill:#333333;" d="M236.163,235.599c-3.282-2.16-7.824-1.423-10.177,1.755c-2.207,2.981-1.87,7.134,0.706,9.784
			c3.282,3.186,8.82,2.802,11.457-1.019C240.496,242.719,239.634,237.89,236.163,235.599
			C235.753,235.329,236.572,235.869,236.163,235.599z"/>
		<path style="fill:#333333;" d="M238.923,262.299c-2.063-4.872-8.443-6.112-12.23-2.44c-4.153,4.278-1.885,11.636,4.024,12.693
			C236.415,273.571,241.171,267.64,238.923,262.299C238.732,261.849,239.112,262.749,238.923,262.299z"/>
		<path style="fill:#333333;" d="M238.923,285.629c-1.217-2.876-4.147-4.781-7.29-4.621c-3.274,0.167-6.1,2.503-6.908,5.671
			c-0.723,2.835,0.344,5.896,2.63,7.708c2.595,2.057,6.375,2.123,9.05,0.179C239.173,292.556,240.254,288.793,238.923,285.629
			C238.732,285.179,239.112,286.079,238.923,285.629z"/>
		<path style="fill:#333333;" d="M337.923,351.629c-1.19-2.814-4.007-4.691-7.076-4.627c-3.209,0.067-6.089,2.247-7.023,5.32
			c-1.974,6.496,5.401,12.105,11.141,8.535C338.034,358.948,339.33,354.974,337.923,351.629
			C337.732,351.179,338.112,352.079,337.923,351.629z"/>
		<path style="fill:#333333;" d="M362.923,351.629c-1.192-2.819-4.026-4.704-7.105-4.625c-3.132,0.08-5.954,2.17-6.936,5.144
			c-2.188,6.626,5.469,12.464,11.281,8.592C363.092,358.787,364.291,354.88,362.923,351.629
			C362.732,351.179,363.112,352.079,362.923,351.629z"/>
		<path style="fill:#333333;" d="M387.923,351.629c-1.169-2.763-3.902-4.63-6.921-4.63c-3.136,0-6.009,2.027-7.062,4.977
			c-1.072,3.001-0.078,6.435,2.416,8.412c2.547,2.02,6.267,2.13,8.929,0.265C388.14,358.653,389.251,354.855,387.923,351.629
			C387.732,351.179,388.112,352.089,387.923,351.629z"/>
		<path style="fill:#333333;" d="M412.923,351.629c-1.216-2.875-4.147-4.781-7.29-4.621c-3.135,0.16-5.891,2.317-6.809,5.315
			c-0.875,2.859,0.106,6.083,2.416,7.974c2.518,2.061,6.211,2.255,8.923,0.442C413.095,358.779,414.295,354.89,412.923,351.629
			C412.732,351.179,413.112,352.079,412.923,351.629z"/>
		<path style="fill:#333333;" d="M42.923,351.629c-1.17-2.765-3.9-4.63-6.921-4.63c-3.137,0-6.008,2.025-7.062,4.977
			c-1.072,3.001-0.078,6.435,2.416,8.412c2.547,2.02,6.266,2.13,8.929,0.265C43.14,358.653,44.251,354.855,42.923,351.629
			C42.732,351.179,43.112,352.089,42.923,351.629z"/>
		<path style="fill:#333333;" d="M67.923,351.629c-2.563-6.06-11.496-6.038-13.904,0.146c-2.452,6.297,4.389,12.482,10.412,9.388
			C67.839,359.411,69.416,355.176,67.923,351.629C67.732,351.179,68.112,352.079,67.923,351.629z"/>
		<path style="fill:#333333;" d="M92.923,351.629c-2.54-6.004-11.323-6.057-13.851,0c-1.281,3.07-0.307,6.75,2.321,8.787
			c2.419,1.875,5.827,2.089,8.458,0.517C92.988,359.06,94.344,355.006,92.923,351.629C92.732,351.179,93.112,352.079,92.923,351.629
			z"/>
		<path style="fill:#333333;" d="M117.923,351.629c-2.567-6.07-11.511-6.04-13.917,0.171c-1.176,3.035-0.194,6.571,2.349,8.588
			c2.409,1.91,5.844,2.116,8.478,0.551C117.979,359.071,119.348,355.017,117.923,351.629
			C117.732,351.179,118.112,352.079,117.923,351.629z"/>
	</g>
	<path style="fill:#FFFFFF;" d="M92.503,121.519h-21.75c-4.143,0-7.5-3.358-7.5-7.5s3.357-7.5,7.5-7.5h21.75
		c4.143,0,7.5,3.358,7.5,7.5S96.646,121.519,92.503,121.519z"/>
	<path style="fill:#FFFFFF;" d="M369.503,121.519h-21.75c-4.143,0-7.5-3.358-7.5-7.5s3.357-7.5,7.5-7.5h21.75
		c4.143,0,7.5,3.358,7.5,7.5S373.646,121.519,369.503,121.519z"/>
	<path style="fill:#FFFFFF;" d="M227.003,199.519h-40c-4.143,0-7.5-3.358-7.5-7.5s3.357-7.5,7.5-7.5h40c4.143,0,7.5,3.358,7.5,7.5
		S231.146,199.519,227.003,199.519z"/>
	<path style="fill:#FFFFFF;" d="M246.003,199.519c-0.49,0-0.98-0.05-1.47-0.15c-0.471-0.09-0.95-0.24-1.4-0.43
		c-0.45-0.18-0.89-0.41-1.29-0.68c-0.41-0.28-0.8-0.59-1.14-0.94c-0.351-0.34-0.66-0.73-0.94-1.14c-0.27-0.4-0.5-0.84-0.69-1.29
		c-0.18-0.45-0.329-0.93-0.42-1.4c-0.1-0.49-0.149-0.98-0.149-1.47c0-0.49,0.05-0.98,0.149-1.47c0.091-0.47,0.24-0.95,0.42-1.4
		c0.19-0.45,0.421-0.89,0.69-1.29c0.28-0.41,0.59-0.8,0.94-1.14c0.34-0.35,0.729-0.66,1.14-0.94c0.4-0.27,0.84-0.5,1.29-0.69
		c0.45-0.18,0.93-0.33,1.4-0.42c0.97-0.2,1.97-0.2,2.939,0c0.47,0.09,0.95,0.24,1.4,0.42c0.449,0.19,0.89,0.42,1.29,0.69
		c0.409,0.28,0.8,0.59,1.14,0.94c0.35,0.34,0.66,0.73,0.94,1.14c0.27,0.4,0.5,0.84,0.689,1.29c0.18,0.45,0.33,0.93,0.42,1.4
		c0.101,0.49,0.15,0.98,0.15,1.47c0,0.49-0.05,0.98-0.15,1.47c-0.09,0.47-0.24,0.95-0.42,1.4c-0.189,0.45-0.42,0.89-0.689,1.29
		c-0.28,0.41-0.591,0.8-0.94,1.14c-0.34,0.35-0.73,0.66-1.14,0.94c-0.4,0.27-0.841,0.5-1.29,0.68c-0.45,0.19-0.931,0.34-1.4,0.43
		C246.982,199.469,246.493,199.519,246.003,199.519z"/>
	<path style="fill:#FFFFFF;" d="M316.003,280.999c-4.143,0-7.5-3.358-7.5-7.5c0-25.64,20.859-46.5,46.5-46.5
		c4.143,0,7.5,3.358,7.5,7.5s-3.357,7.5-7.5,7.5c-17.369,0-31.5,14.131-31.5,31.5C323.503,277.641,320.146,280.999,316.003,280.999z
		"/>
</g>
<g>
</g>
<g>
</g>
<g>
</g>
<g>
</g>
<g>
</g>
<g>
</g>
<g>
</g>
<g>
</g>
<g>
</g>
<g>
</g>
<g>
</g>
<g>
</g>
<g>
</g>
<g>
</g>
<g>
</g>
</svg>
