<?xml version="1.0" encoding="iso-8859-1"?>
<!-- Generator: Adobe Illustrator 19.0.0, SVG Export Plug-In . SVG Version: 6.00 Build 0)  -->
<svg version="1.1" id="Layer_1" xmlns="http://www.w3.org/2000/svg" xmlns:xlink="http://www.w3.org/1999/xlink" x="0px" y="0px"
	 viewBox="0 0 376.061 376.061" style="enable-background:new 0 0 376.061 376.061;" xml:space="preserve">
<g>
	<circle style="fill:#F7B239;" cx="158.026" cy="46.304" r="13"/>
	<circle style="fill:#F7B239;" cx="218.026" cy="46.304" r="13"/>
	<rect x="35.786" y="250.074" style="fill:#F2F2F2;" width="49.24" height="118.49"/>
	<polygon style="fill:#F2F2F2;" points="150.346,250.074 150.346,250.304 122.716,250.304 122.716,313.634 136.526,313.634 
		136.526,314.074 136.526,368.564 85.026,368.564 85.026,250.074 	"/>
	<polygon style="fill:#F2F2F2;" points="188.026,313.634 188.026,368.564 136.526,368.564 136.526,314.074 136.526,313.634 
		150.346,313.634 150.346,250.304 150.346,250.074 188.026,250.074 188.026,250.304 174.216,250.304 174.216,313.634 	"/>
	<polygon style="fill:#F2F2F2;" points="239.526,250.074 239.526,368.564 188.026,368.564 188.026,313.634 201.846,313.634 
		201.846,250.304 188.026,250.304 188.026,250.074 	"/>
	<polygon style="fill:#F2F2F2;" points="291.036,313.634 291.036,368.564 239.526,368.564 239.526,250.074 291.036,250.074 
		291.036,250.304 277.536,250.304 277.536,313.634 	"/>
	<polygon style="fill:#F2F2F2;" points="340.276,250.074 340.276,368.564 291.036,368.564 291.036,313.634 305.156,313.634 
		305.156,250.304 291.036,250.304 291.036,250.074 	"/>
	<rect x="291.026" y="90.074" style="fill:#F2F2F2;" width="49.25" height="118.49"/>
	<polygon style="fill:#F2F2F2;" points="291.026,90.074 291.026,208.564 239.526,208.564 239.526,154.074 239.526,153.634 
		253.346,153.634 253.346,90.304 253.346,90.074 	"/>
	<polygon style="fill:#F2F2F2;" points="253.346,90.074 253.346,90.304 225.716,90.304 225.716,153.634 239.526,153.634 
		239.526,154.074 239.526,208.564 188.036,208.564 188.036,153.634 201.836,153.634 201.836,90.304 188.036,90.304 188.036,90.074 	
		"/>
	<polygon style="fill:#F2F2F2;" points="188.036,153.634 188.036,208.564 136.526,208.564 136.526,90.074 188.036,90.074 
		188.036,90.304 174.216,90.304 174.216,153.634 	"/>
	<polygon style="fill:#F2F2F2;" points="136.526,90.074 136.526,208.564 85.026,208.564 85.026,153.634 98.526,153.634 
		98.526,90.304 85.026,90.304 85.026,90.074 	"/>
	<polygon style="fill:#F2F2F2;" points="85.026,153.634 85.026,208.564 35.786,208.564 35.786,90.074 85.026,90.074 85.026,90.304 
		70.906,90.304 70.906,153.634 	"/>
	<polygon style="fill:#4D4D4D;" points="305.156,250.304 305.156,313.634 291.036,313.634 277.536,313.634 277.536,250.304 
		291.036,250.304 	"/>
	<polygon style="fill:#4D4D4D;" points="201.846,250.304 201.846,313.634 188.026,313.634 174.216,313.634 174.216,250.304 
		188.026,250.304 	"/>
	<polygon style="fill:#F95428;" points="85.026,208.564 136.526,208.564 188.036,208.564 239.526,208.564 291.026,208.564 
		340.276,208.564 366.846,208.564 368.556,208.564 368.556,368.564 340.276,368.564 340.276,250.074 291.036,250.074 
		239.526,250.074 188.026,250.074 150.346,250.074 85.026,250.074 35.786,250.074 35.786,368.564 7.496,368.564 7.496,208.564 
		35.786,208.564 	"/>
	<path style="fill:#F95428;" d="M368.556,7.504v201.06h-1.71h-26.57V90.074h-49.25h-37.68h-65.31h-51.51h-51.5h-49.24v118.49H7.496
		V7.504H368.556z M231.026,46.304c0-7.18-5.82-13-13-13c-7.18,0-13,5.82-13,13s5.82,13,13,13
		C225.206,59.304,231.026,53.484,231.026,46.304z M171.026,46.304c0-7.18-5.82-13-13-13c-7.18,0-13,5.82-13,13s5.82,13,13,13
		C165.206,59.304,171.026,53.484,171.026,46.304z"/>
	<polygon style="fill:#4D4D4D;" points="253.346,90.304 253.346,153.634 239.526,153.634 225.716,153.634 225.716,90.304 	"/>
	<polygon style="fill:#4D4D4D;" points="201.836,90.304 201.836,153.634 188.036,153.634 174.216,153.634 174.216,90.304 
		188.036,90.304 	"/>
	<polygon style="fill:#4D4D4D;" points="150.346,250.304 150.346,313.634 136.526,313.634 122.716,313.634 122.716,250.304 	"/>
	<polygon style="fill:#4D4D4D;" points="98.526,90.304 98.526,153.634 85.026,153.634 70.906,153.634 70.906,90.304 85.026,90.304 	
		"/>
	<rect x="283.536" y="250.074" width="15" height="0.23"/>
	<rect x="180.526" y="250.074" width="15" height="0.23"/>
	<rect x="77.526" y="90.074" width="15" height="0.23"/>
	<rect x="180.536" y="90.074" width="15" height="0.23"/>
	<path style="fill:#FFFFFF;" d="M224.706,235.554h-195c-4.143,0-7.5-3.358-7.5-7.5s3.357-7.5,7.5-7.5h195c4.143,0,7.5,3.358,7.5,7.5
		S228.849,235.554,224.706,235.554z"/>
	<path style="fill:#FFFFFF;" d="M246.706,235.554c-1.97,0-3.91-0.8-5.3-2.2c-0.351-0.34-0.66-0.73-0.94-1.14
		c-0.27-0.4-0.5-0.84-0.69-1.29c-0.18-0.45-0.329-0.93-0.42-1.41c-0.1-0.48-0.149-0.97-0.149-1.46c0-0.49,0.05-0.98,0.149-1.47
		c0.091-0.47,0.24-0.95,0.42-1.4c0.19-0.45,0.421-0.89,0.69-1.29c0.28-0.41,0.59-0.8,0.94-1.14c1.739-1.75,4.319-2.55,6.77-2.05
		c0.47,0.09,0.95,0.24,1.4,0.42c0.449,0.19,0.89,0.42,1.29,0.69c0.409,0.28,0.8,0.59,1.14,0.94c0.35,0.34,0.66,0.73,0.94,1.14
		c0.27,0.4,0.5,0.84,0.689,1.29c0.18,0.45,0.33,0.93,0.42,1.4c0.101,0.49,0.15,0.98,0.15,1.47c0,0.49-0.05,0.98-0.15,1.46
		c-0.09,0.48-0.24,0.96-0.42,1.41c-0.189,0.45-0.42,0.89-0.689,1.29c-0.28,0.41-0.591,0.8-0.94,1.14c-0.34,0.35-0.73,0.66-1.14,0.94
		c-0.4,0.27-0.841,0.5-1.29,0.68c-0.45,0.19-0.931,0.34-1.4,0.43C247.686,235.504,247.196,235.554,246.706,235.554z"/>
	<g>
		<path style="fill:#333333;" d="M35.786,65.804c3.006,0,5.775-1.868,6.92-4.64c1.27-3.075,0.321-6.743-2.318-8.783
			c-5.384-4.163-13.366,0.751-11.94,7.461C29.176,63.267,32.279,65.804,35.786,65.804z"/>
		<path style="fill:#333333;" d="M56.626,64.534c2.694,1.821,6.369,1.632,8.883-0.41c2.448-1.989,3.388-5.378,2.336-8.348
			c-2.214-6.248-11.29-6.566-13.93-0.477C52.505,58.551,53.609,62.594,56.626,64.534C57.025,64.804,56.206,64.264,56.626,64.534z"/>
		<path style="fill:#333333;" d="M78.855,61.175c0.384,0.906,0.935,1.724,1.62,2.43c4.727,4.582,12.974,1.207,12.806-5.484
			c-0.164-6.502-8.185-9.605-12.806-5.126C78.355,55.179,77.752,58.346,78.855,61.175C79.046,61.624,78.676,60.714,78.855,61.175z"
			/>
		<path style="fill:#333333;" d="M103.855,61.164c1.274,3.077,4.549,5.001,7.863,4.581c3.11-0.394,5.685-2.749,6.378-5.802
			c0.744-3.278-0.874-6.754-3.859-8.293c-2.903-1.496-6.426-0.92-8.762,1.344C103.367,55.167,102.733,58.352,103.855,61.164
			C104.046,61.624,103.676,60.714,103.855,61.164z"/>
		<path style="fill:#333333;" d="M28.855,39.164c2.125,5.133,9.406,6.097,12.838,1.73c2.085-2.652,2.067-6.51,0.02-9.18
			c-2.264-2.953-6.571-3.745-9.764-1.854c-3.291,1.95-4.339,5.971-3.038,9.434"/>
		<path style="fill:#333333;" d="M53.855,39.164c1.208,2.917,4.236,4.825,7.396,4.623c2.952-0.188,5.604-2.174,6.593-4.965
			c1.067-3.01,0.083-6.475-2.449-8.437c-2.483-1.924-5.959-2.086-8.616-0.42C53.706,31.893,52.522,35.823,53.855,39.164
			C54.046,39.624,53.676,38.714,53.855,39.164z"/>
		<path style="fill:#333333;" d="M78.855,39.164c1.18,2.851,4.149,4.762,7.234,4.632c3.037-0.128,5.782-2.187,6.781-5.054
			c1.002-2.873,0.067-6.192-2.242-8.162c-2.474-2.111-6.117-2.296-8.859-0.595c-3.188,1.976-4.132,5.921-2.859,9.309"/>
		<path style="fill:#333333;" d="M103.855,39.164c1.273,3.075,4.547,5.002,7.859,4.581c3.111-0.395,5.689-2.747,6.382-5.802
			c0.744-3.279-0.874-6.755-3.861-8.293c-2.903-1.495-6.423-0.921-8.76,1.344C103.367,33.167,102.733,36.352,103.855,39.164
			C104.046,39.624,103.676,38.714,103.855,39.164z"/>
		<path style="fill:#333333;" d="M258.346,61.164c2.313,5.586,10.248,6.177,13.356,0.989c1.691-2.822,1.311-6.525-0.921-8.945
			c-2.292-2.485-6.065-3.095-9.04-1.519C258.355,53.483,256.938,57.637,258.346,61.164
			C258.536,61.624,258.166,60.714,258.346,61.164z"/>
		<path style="fill:#333333;" d="M283.346,61.175c1.229,2.902,4.282,4.836,7.439,4.61c3.063-0.219,5.793-2.392,6.673-5.338
			c0.942-3.153-0.364-6.706-3.152-8.463c-2.701-1.703-6.336-1.508-8.802,0.535c-2.657,2.201-3.176,5.653-2.103,8.781"/>
		<path style="fill:#333333;" d="M308.346,61.164c1.195,2.886,4.212,4.812,7.337,4.625c3.097-0.185,5.874-2.359,6.766-5.337
			c0.887-2.961-0.204-6.311-2.689-8.156c-2.689-1.996-6.544-1.947-9.165,0.147c-2.682,2.143-3.367,5.729-2.195,8.852"/>
		<path style="fill:#333333;" d="M336.105,64.534c5.104,3.36,12.113-0.644,11.647-6.781c-0.481-6.33-8.284-9.135-12.786-4.759
			C331.743,56.315,332.19,61.95,336.105,64.534C336.516,64.804,335.696,64.264,336.105,64.534z"/>
		<path style="fill:#333333;" d="M258.346,39.175c1.242,2.933,4.285,4.852,7.481,4.606c3.27-0.251,6.027-2.651,6.758-5.837
			c1.502-6.542-6.075-11.546-11.55-7.825C258.105,32.109,257.073,35.914,258.346,39.175
			C258.536,39.624,258.166,38.714,258.346,39.175z"/>
		<path style="fill:#333333;" d="M286.116,42.534c5.715,3.863,13.346-1.869,11.332-8.411c-0.941-3.059-3.783-5.239-6.99-5.317
			c-3.195-0.077-6.169,1.958-7.241,4.969C282.08,36.967,283.275,40.664,286.116,42.534
			C286.516,42.804,285.706,42.264,286.116,42.534z"/>
		<path style="fill:#333333;" d="M308.346,39.164c1.193,2.881,4.207,4.806,7.325,4.626c3.033-0.175,5.751-2.263,6.718-5.141
			c1.008-3-0.09-6.466-2.627-8.352c-2.653-1.971-6.45-1.953-9.071,0.068c-2.756,2.125-3.478,5.767-2.29,8.929"/>
		<path style="fill:#333333;" d="M336.105,42.534c4.855,3.196,11.541-0.239,11.667-6.075c0.143-6.671-8.088-10.052-12.806-5.465
			C331.742,34.315,332.192,39.952,336.105,42.534C336.516,42.804,335.696,42.264,336.105,42.534z"/>
		<path style="fill:#333333;" d="M368.561,0H7.5C3.357,0,0,3.358,0,7.5v361.06c0,4.142,3.357,7.5,7.5,7.5h361.061
			c4.143,0,7.5-3.358,7.5-7.5V7.5C376.061,3.358,372.703,0,368.561,0z M361.061,15v186.06h-13.285V90.071c0-4.142-3.357-7.5-7.5-7.5
			H35.785c-4.143,0-7.5,3.358-7.5,7.5v110.99H15V15H361.061z M78.403,146.134V97.801h12.625v48.333H78.403z M70.903,161.134h6.622
			v39.926h-34.24V97.571h20.118v56.063C63.403,157.776,66.761,161.134,70.903,161.134z M92.525,161.134h6.003
			c4.143,0,7.5-3.358,7.5-7.5V97.571h23.002v103.49H92.525V161.134z M144.03,97.571h22.686v56.063c0,4.142,3.357,7.5,7.5,7.5h6.319
			v39.926H144.03V97.571z M181.716,146.134V97.801h12.625v48.333H181.716z M195.535,161.134h6.306c4.143,0,7.5-3.358,7.5-7.5V97.571
			h8.877v56.063c0,4.142,3.357,7.5,7.5,7.5h6.313v39.926h-36.495V161.134z M233.218,146.134V97.801h12.625v48.333H233.218z
			 M247.03,161.134h6.313c4.143,0,7.5-3.358,7.5-7.5V97.571h22.688v103.49h-36.5V161.134z M298.53,97.571h34.245v103.49H298.53
			V97.571z M332.775,361.06h-34.24v-39.926h6.623c4.143,0,7.5-3.358,7.5-7.5v-56.063h20.117V361.06z M285.033,306.134v-48.333
			h12.625v48.333H285.033z M277.533,321.134h6.002v39.926H247.03v-103.49h23.003v56.063
			C270.033,317.776,273.391,321.134,277.533,321.134z M232.03,361.06h-36.505v-39.926h6.32c4.143,0,7.5-3.358,7.5-7.5v-56.063
			h22.685V361.06z M181.721,306.134v-48.333h12.625v48.333H181.721z M174.221,321.134h6.305v39.926H144.03v-39.926h6.313
			c4.143,0,7.5-3.358,7.5-7.5v-56.063h8.878v56.063C166.721,317.776,170.078,321.134,174.221,321.134z M130.218,306.134v-48.333
			h12.625v48.333H130.218z M122.718,321.134h6.313v39.926h-36.5v-103.49h22.688v56.063
			C115.218,317.776,118.575,321.134,122.718,321.134z M77.53,361.06H43.285v-103.49H77.53V361.06z M347.775,361.06v-110.99
			c0-4.142-3.357-7.5-7.5-7.5H35.785c-4.143,0-7.5,3.358-7.5,7.5v110.99H15v-145h346.061v145H347.775z"/>
		<path style="fill:#333333;" d="M158.03,66.801c11.304,0,20.5-9.196,20.5-20.5s-9.196-20.5-20.5-20.5s-20.5,9.196-20.5,20.5
			S146.727,66.801,158.03,66.801z M158.03,40.801c3.033,0,5.5,2.467,5.5,5.5s-2.467,5.5-5.5,5.5s-5.5-2.467-5.5-5.5
			S154.997,40.801,158.03,40.801z"/>
		<path style="fill:#333333;" d="M218.03,66.801c11.304,0,20.5-9.196,20.5-20.5s-9.196-20.5-20.5-20.5s-20.5,9.196-20.5,20.5
			S206.727,66.801,218.03,66.801z M218.03,40.801c3.033,0,5.5,2.467,5.5,5.5s-2.467,5.5-5.5,5.5s-5.5-2.467-5.5-5.5
			S214.997,40.801,218.03,40.801z"/>
	</g>
</g>
<g>
</g>
<g>
</g>
<g>
</g>
<g>
</g>
<g>
</g>
<g>
</g>
<g>
</g>
<g>
</g>
<g>
</g>
<g>
</g>
<g>
</g>
<g>
</g>
<g>
</g>
<g>
</g>
<g>
</g>
</svg>
