<?xml version="1.0" encoding="iso-8859-1"?>
<!-- Generator: Adobe Illustrator 19.0.0, SVG Export Plug-In . SVG Version: 6.00 Build 0)  -->
<svg version="1.1" id="Layer_1" xmlns="http://www.w3.org/2000/svg" xmlns:xlink="http://www.w3.org/1999/xlink" x="0px" y="0px"
	 viewBox="0 0 411.346 411.346" style="enable-background:new 0 0 411.346 411.346;" xml:space="preserve">
<g>
	<polygon style="fill:#F7B239;" points="350.988,185.202 350.988,211.692 339.008,211.692 307.478,211.692 295.488,211.692 
		295.488,185.202 307.478,185.202 339.008,185.202 	"/>
	<polygon style="fill:#F7B239;" points="267.748,185.202 267.748,211.692 255.758,211.692 224.228,211.692 212.248,211.692 
		212.248,185.202 224.228,185.202 255.758,185.202 	"/>
	<polygon style="fill:#F7B239;" points="184.498,185.202 184.498,211.692 172.518,211.692 140.978,211.692 128.998,211.692 
		128.998,185.202 140.978,185.202 172.518,185.202 	"/>
	<polygon style="fill:#F7B239;" points="339.008,7.502 339.008,37.872 323.238,37.872 307.478,37.872 307.478,7.502 	"/>
	<polygon style="fill:#F7B239;" points="255.758,7.502 255.758,37.872 239.998,37.872 224.228,37.872 224.228,7.502 	"/>
	<polygon style="fill:#F7B239;" points="172.518,7.502 172.518,37.872 156.748,37.872 140.978,37.872 140.978,7.502 	"/>
	<polygon style="fill:#F7B239;" points="156.748,94.302 172.518,94.302 172.518,185.202 140.978,185.202 140.978,94.302 	"/>
	<polygon style="fill:#F7B239;" points="239.998,94.302 255.758,94.302 255.758,185.202 224.228,185.202 224.228,94.302 	"/>
	<polygon style="fill:#F7B239;" points="323.238,94.302 339.008,94.302 339.008,185.202 307.478,185.202 307.478,94.302 	"/>
	<path style="fill:#F7B239;" d="M339.008,240.512v15.58c0,4.35-1.77,8.29-4.62,11.15c-2.85,2.85-6.79,4.61-11.15,4.61
		c-8.7,0-15.76-7.05-15.76-15.76v-15.58v-28.82h31.53V240.512z"/>
	<path style="fill:#F7B239;" d="M172.518,240.512v15.58c0,4.35-1.76,8.29-4.62,11.15c-2.85,2.85-6.8,4.61-11.15,4.61
		c-8.71,0-15.77-7.05-15.77-15.76v-15.58v-28.82h31.54V240.512z"/>
	<path style="fill:#F95428;" d="M32.498,204.352h18.4v13.58c0,6.24,2.53,11.88,6.61,15.97c4.09,4.08,9.73,6.61,15.97,6.61h56.81
		h10.69v15.58c0,8.71,7.06,15.76,15.77,15.76c4.35,0,8.3-1.76,11.15-4.61c2.86-2.86,4.62-6.8,4.62-11.15v-15.58h51.71v15.58
		c0,8.71,7.06,15.76,15.77,15.76c4.35,0,8.29-1.76,11.14-4.61c2.86-2.86,4.62-6.8,4.62-11.15v-15.58h51.71h0.01v15.58
		c0,8.71,7.06,15.76,15.76,15.76c4.36,0,8.3-1.76,11.15-4.61c2.85-2.86,4.62-6.8,4.62-11.15v-15.58h31.33
		c17.03,0,29.97,15.55,26.62,32.25c-14.97,74.76-80.98,131.08-160.15,131.08c-58.14,0-109.19-30.39-138.12-76.15
		c-5.66-8.94-13.45-16.09-22.47-21c-9.02-4.92-19.26-7.59-29.85-7.59c-8.69,0-16.56-3.53-22.25-9.22c-1.19-1.19-2.36-2.91-3.45-4.82
		c-3.88-6.84-5.77-14.63-5.77-22.5v-58.21H32.498z"/>
	<g style="opacity:0.25;">
		<path style="fill:#4D4D4D;" d="M370.338,240.512h-16.337c-0.016,0.083-0.026,0.167-0.043,0.25
			c-14.97,74.76-80.98,131.08-160.15,131.08c-26.867,0-52.213-6.501-74.569-17.998c29.702,30.815,71.392,49.998,117.569,49.998
			c79.17,0,145.18-56.32,160.15-131.08C400.308,256.062,387.368,240.512,370.338,240.512z"/>
	</g>
	<path style="fill:#FFFFFF;" d="M93.678,270.012H73.478c-7.953,0-15.576-1.738-22.658-5.166c-3.728-1.805-5.288-6.29-3.483-10.019
		s6.289-5.288,10.019-3.483c5.028,2.434,10.453,3.667,16.123,3.667h20.201c4.142,0,7.5,3.358,7.5,7.5S97.821,270.012,93.678,270.012
		z"/>
	<path style="fill:#FFFFFF;" d="M36.898,250.932c-1.97,0-3.91-0.8-5.3-2.19c-1.4-1.4-2.2-3.33-2.2-5.31c0-0.48,0.05-0.98,0.15-1.46
		c0.09-0.48,0.24-0.95,0.43-1.4c0.18-0.46,0.41-0.89,0.68-1.3c0.28-0.41,0.59-0.79,0.94-1.14c0.34-0.35,0.73-0.66,1.14-0.93
		c0.4-0.27,0.84-0.5,1.29-0.69c0.45-0.19,0.93-0.33,1.41-0.43c2.43-0.49,5.02,0.31,6.76,2.05c0.35,0.35,0.66,0.73,0.94,1.14
		c0.27,0.41,0.5,0.84,0.69,1.3c0.18,0.45,0.33,0.92,0.42,1.4c0.1,0.48,0.15,0.98,0.15,1.46c0,1.98-0.8,3.91-2.2,5.31
		C40.808,250.132,38.868,250.932,36.898,250.932z"/>
	<path style="fill:#FFFFFF;" d="M305.433,296.889c-1.197,0-2.412-0.287-3.54-0.893c-4.098-2.199-7.825-5.008-11.078-8.351
		c-2.889-2.968-2.825-7.717,0.143-10.606c2.968-2.889,7.716-2.826,10.606,0.143c2.181,2.241,4.679,4.124,7.422,5.597
		c3.65,1.958,5.021,6.505,3.062,10.155C310.695,295.455,308.107,296.889,305.433,296.889z"/>
	<path style="fill:#FFFFFF;" d="M239.998,301.352c-12.346,0-24.313-5.149-32.834-14.127c-2.851-3.004-2.727-7.751,0.278-10.603
		c3.005-2.851,7.752-2.728,10.603,0.278c5.785,6.096,13.581,9.453,21.953,9.453c2.763,0,5.493-0.367,8.113-1.09
		c3.992-1.101,8.123,1.242,9.225,5.235c1.102,3.993-1.242,8.123-5.235,9.225C248.181,300.804,244.109,301.352,239.998,301.352z"/>
	<path style="fill:#FFFFFF;" d="M156.748,301.352c-12.679,0-24.866-5.385-33.436-14.774c-2.793-3.059-2.577-7.803,0.483-10.595
		c3.058-2.793,7.802-2.577,10.595,0.483c5.736,6.283,13.885,9.887,22.358,9.887c1.891,0,3.779-0.172,5.612-0.513
		c4.075-0.759,7.987,1.933,8.743,6.005s-1.933,7.987-6.005,8.743C162.363,301.095,159.554,301.352,156.748,301.352z"/>
	<path style="fill:#FFFFFF;" d="M128.853,289.021c-2.035,0-4.063-0.823-5.543-2.445c-0.528-0.58-1.043-1.173-1.541-1.779
		c-2.629-3.201-2.167-7.927,1.034-10.556c3.2-2.63,7.926-2.166,10.556,1.034c0.334,0.406,0.679,0.804,1.033,1.192
		c2.792,3.061,2.574,7.804-0.486,10.596C132.468,288.374,130.657,289.021,128.853,289.021z"/>
	<path style="fill:#F7B239;" d="M255.758,240.512v15.58c0,4.35-1.76,8.29-4.62,11.15c-2.85,2.85-6.79,4.61-11.14,4.61
		c-8.71,0-15.77-7.05-15.77-15.76v-15.58v-28.82h31.53V240.512z"/>
	<path style="fill:#333333;" d="M397.183,245.73c-6.62-8.08-16.403-12.714-26.84-12.714h-23.836v-13.828h4.482
		c4.142,0,7.5-3.358,7.5-7.5v-26.487c0-4.142-3.358-7.5-7.5-7.5h-4.482V94.302c0-4.142-3.358-7.5-7.5-7.5h-8.266V72.366h6
		c4.142,0,7.5-3.358,7.5-7.5s-3.358-7.5-7.5-7.5h-6V45.367h8.266c4.142,0,7.5-3.358,7.5-7.5V7.5c0-4.142-3.358-7.5-7.5-7.5h-31.532
		c-4.142,0-7.5,3.358-7.5,7.5v30.367c0,4.142,3.358,7.5,7.5,7.5h8.266v11.999h-5.999c-4.142,0-7.5,3.358-7.5,7.5s3.358,7.5,7.5,7.5
		h5.999v14.436h-8.266c-4.142,0-7.5,3.358-7.5,7.5v83.399h-4.482c-4.142,0-7.5,3.358-7.5,7.5v26.487c0,4.142,3.358,7.5,7.5,7.5
		h4.482v13.828h-36.713v-13.828h4.482c4.142,0,7.5-3.358,7.5-7.5v-26.487c0-4.142-3.358-7.5-7.5-7.5h-4.482V94.302
		c0-4.142-3.358-7.5-7.5-7.5h-8.266V72.366h5.999c4.142,0,7.5-3.358,7.5-7.5s-3.358-7.5-7.5-7.5h-5.999V45.367h8.266
		c4.142,0,7.5-3.358,7.5-7.5V7.5c0-4.142-3.358-7.5-7.5-7.5h-31.533c-4.142,0-7.5,3.358-7.5,7.5v30.367c0,4.142,3.358,7.5,7.5,7.5
		h8.267v11.999h-6c-4.142,0-7.5,3.358-7.5,7.5s3.358,7.5,7.5,7.5h6v14.436h-8.267c-4.142,0-7.5,3.358-7.5,7.5v83.399h-4.482
		c-4.142,0-7.5,3.358-7.5,7.5v26.487c0,4.142,3.358,7.5,7.5,7.5h4.482v13.828h-36.713v-13.828h4.482c4.142,0,7.5-3.358,7.5-7.5
		v-26.487c0-4.142-3.358-7.5-7.5-7.5h-4.482V94.302c0-4.142-3.358-7.5-7.5-7.5h-8.267V72.366h6c4.142,0,7.5-3.358,7.5-7.5
		s-3.358-7.5-7.5-7.5h-6V45.367h8.267c4.142,0,7.5-3.358,7.5-7.5V7.5c0-4.142-3.358-7.5-7.5-7.5h-31.533c-4.142,0-7.5,3.358-7.5,7.5
		v30.367c0,4.142,3.358,7.5,7.5,7.5h8.266v11.999h-5.999c-4.142,0-7.5,3.358-7.5,7.5s3.358,7.5,7.5,7.5h5.999v14.436h-8.266
		c-4.142,0-7.5,3.358-7.5,7.5v83.399H129c-4.142,0-7.5,3.358-7.5,7.5v26.487c0,4.142,3.358,7.5,7.5,7.5h4.482v13.828h-60
		c-4.026,0-7.816-1.569-10.66-4.407c-2.851-2.857-4.42-6.648-4.42-10.673v-13.58c0-4.142-3.358-7.5-7.5-7.5H39.997V47.403h11.141
		c4.142,0,7.5-3.358,7.5-7.5s-3.358-7.5-7.5-7.5H13.856c-4.142,0-7.5,3.358-7.5,7.5s3.358,7.5,7.5,7.5h11.141v149.453H14.903
		c-4.142,0-7.5,3.358-7.5,7.5v58.21c0,9.36,2.333,18.42,6.756,26.218c1.562,2.736,3.086,4.831,4.661,6.405
		c7.362,7.362,17.147,11.417,27.553,11.417c9.174,0,18.254,2.308,26.265,6.678c8.04,4.376,14.858,10.747,19.716,18.42
		c31.528,49.869,85.532,79.642,144.459,79.642c81.15,0,151.596-57.662,167.503-137.105
		C406.344,264.13,403.744,253.738,397.183,245.73z M314.974,15h16.532v15.367h-16.532V15z M231.728,15h16.533v15.367h-16.533V15z
		 M148.483,15h16.533v15.367h-16.533V15z M302.992,204.188v-11.487h40.497v11.487H302.992z M314.974,101.802h16.532v75.899h-16.532
		V101.802z M331.507,219.188v36.901c0,4.558-3.708,8.266-8.266,8.266c-4.558,0-8.266-3.708-8.266-8.266v-36.901H331.507z
		 M219.746,204.188v-11.487h40.497v11.487H219.746z M231.728,101.802h16.533v75.899h-16.533V101.802z M248.261,219.188v36.901
		c0,4.558-3.708,8.266-8.266,8.266s-8.267-3.708-8.267-8.266v-36.901H248.261z M136.5,204.188v-11.487h40.497v11.487H136.5z
		 M148.483,101.802h16.533v75.899h-16.533V101.802z M165.015,219.188v36.901c0,4.558-3.708,8.266-8.267,8.266
		s-8.266-3.708-8.266-8.266v-36.901H165.015z M389.609,271.293c-14.509,72.46-78.769,125.053-152.796,125.053
		c-53.753,0-103.018-27.162-131.783-72.662c-6.222-9.829-14.944-17.981-25.215-23.572c-10.202-5.565-21.766-8.506-33.442-8.506
		c-6.399,0-12.418-2.494-16.947-7.023c-0.275-0.276-1.045-1.143-2.23-3.218c-3.136-5.528-4.793-12.029-4.793-18.799v-50.71h21v6.08
		c0,8.025,3.125,15.578,8.813,21.28c5.688,5.675,13.241,8.8,21.267,8.8h60v8.073c0,12.829,10.437,23.266,23.266,23.266
		s23.267-10.437,23.267-23.266v-8.073h36.713v8.073c0,12.829,10.438,23.266,23.267,23.266s23.266-10.437,23.266-23.266v-8.073
		h36.713v8.073c0,12.829,10.437,23.266,23.266,23.266c12.829,0,23.266-10.437,23.266-23.266v-8.073h23.836
		c5.924,0,11.478,2.632,15.237,7.22C389.281,259.754,390.75,265.605,389.609,271.293z"/>
	<path style="fill:#FFFFFF;" d="M156.748,121.442c-0.49,0-0.98-0.05-1.47-0.15c-0.47-0.09-0.95-0.24-1.4-0.42
		c-0.45-0.19-0.89-0.42-1.29-0.69c-0.41-0.28-0.8-0.59-1.14-0.94c-0.35-0.34-0.66-0.73-0.94-1.14c-0.27-0.4-0.5-0.84-0.69-1.29
		c-0.18-0.45-0.33-0.93-0.42-1.4c-0.1-0.49-0.15-0.98-0.15-1.47c0-0.49,0.05-0.98,0.15-1.46c0.09-0.48,0.24-0.96,0.42-1.41
		c0.19-0.45,0.42-0.89,0.69-1.29c0.28-0.41,0.59-0.8,0.94-1.14c0.34-0.35,0.73-0.66,1.14-0.94c0.4-0.27,0.84-0.5,1.29-0.69
		c0.45-0.18,0.93-0.33,1.4-0.42c0.97-0.2,1.97-0.2,2.94,0c0.47,0.09,0.95,0.24,1.4,0.42c0.45,0.19,0.89,0.42,1.29,0.69
		c0.42,0.28,0.8,0.59,1.14,0.94c0.35,0.34,0.66,0.73,0.94,1.14c0.27,0.4,0.5,0.84,0.69,1.29c0.18,0.45,0.33,0.93,0.42,1.41
		c0.1,0.48,0.15,0.97,0.15,1.46c0,1.97-0.8,3.91-2.2,5.3c-0.34,0.35-0.72,0.66-1.14,0.94c-0.4,0.27-0.84,0.5-1.29,0.69
		c-0.45,0.18-0.93,0.33-1.4,0.42C157.728,121.392,157.238,121.442,156.748,121.442z"/>
	<path style="fill:#FFFFFF;" d="M239.988,121.442c-0.48,0-0.98-0.05-1.46-0.15c-0.48-0.09-0.95-0.24-1.4-0.42
		c-0.46-0.19-0.89-0.42-1.3-0.69c-0.41-0.28-0.79-0.59-1.14-0.94c-0.34-0.34-0.66-0.73-0.93-1.14c-0.27-0.4-0.5-0.84-0.69-1.29
		c-0.19-0.45-0.33-0.93-0.43-1.4c-0.09-0.49-0.14-0.98-0.14-1.47c0-0.49,0.05-0.98,0.14-1.46c0.1-0.48,0.24-0.96,0.43-1.41
		c0.19-0.45,0.42-0.89,0.69-1.29c0.27-0.41,0.59-0.8,0.93-1.14c0.35-0.35,0.73-0.66,1.14-0.94c0.41-0.27,0.84-0.5,1.3-0.69
		c0.45-0.18,0.92-0.33,1.4-0.42c0.97-0.2,1.96-0.2,2.93,0c0.48,0.09,0.95,0.24,1.4,0.42c0.46,0.19,0.89,0.42,1.3,0.69
		c0.41,0.28,0.79,0.59,1.14,0.94c0.34,0.34,0.66,0.73,0.93,1.14c0.27,0.4,0.5,0.84,0.69,1.29c0.19,0.45,0.33,0.93,0.43,1.41
		s0.14,0.97,0.14,1.46c0,1.97-0.8,3.91-2.19,5.3c-0.35,0.35-0.73,0.66-1.14,0.94c-0.41,0.27-0.84,0.5-1.3,0.69
		c-0.45,0.18-0.92,0.33-1.4,0.42C240.978,121.392,240.478,121.442,239.988,121.442z"/>
	<path style="fill:#FFFFFF;" d="M323.248,121.442c-0.49,0-0.99-0.05-1.47-0.15c-0.48-0.09-0.95-0.24-1.4-0.42
		c-0.46-0.19-0.89-0.42-1.3-0.69c-0.41-0.28-0.79-0.59-1.14-0.94c-1.39-1.39-2.2-3.33-2.2-5.3c0-0.49,0.05-0.98,0.15-1.46
		s0.24-0.96,0.43-1.41c0.19-0.45,0.42-0.89,0.69-1.29c0.27-0.41,0.59-0.8,0.93-1.14c0.35-0.35,0.73-0.66,1.14-0.94
		c0.41-0.27,0.84-0.5,1.3-0.69c0.45-0.18,0.92-0.33,1.4-0.42c0.97-0.2,1.96-0.2,2.93,0c0.48,0.09,0.95,0.24,1.4,0.42
		c0.46,0.19,0.89,0.42,1.3,0.69c0.41,0.28,0.79,0.59,1.14,0.94c0.34,0.34,0.66,0.73,0.93,1.14c0.27,0.4,0.5,0.84,0.69,1.29
		c0.19,0.45,0.33,0.93,0.43,1.41s0.15,0.97,0.15,1.46c0,0.49-0.05,0.98-0.15,1.47c-0.1,0.47-0.24,0.95-0.43,1.4
		c-0.19,0.45-0.42,0.89-0.69,1.29c-0.27,0.41-0.59,0.8-0.93,1.14c-0.35,0.35-0.73,0.66-1.14,0.94c-0.41,0.27-0.84,0.5-1.3,0.69
		c-0.45,0.18-0.92,0.33-1.4,0.42C324.228,121.392,323.728,121.442,323.248,121.442z"/>
</g>
<g>
</g>
<g>
</g>
<g>
</g>
<g>
</g>
<g>
</g>
<g>
</g>
<g>
</g>
<g>
</g>
<g>
</g>
<g>
</g>
<g>
</g>
<g>
</g>
<g>
</g>
<g>
</g>
<g>
</g>
</svg>
