<?xml version="1.0" encoding="iso-8859-1"?>
<!-- Generator: Adobe Illustrator 19.0.0, SVG Export Plug-In . SVG Version: 6.00 Build 0)  -->
<svg version="1.1" id="Layer_1" xmlns="http://www.w3.org/2000/svg" xmlns:xlink="http://www.w3.org/1999/xlink" x="0px" y="0px"
	 viewBox="0 0 446.262 446.262" style="enable-background:new 0 0 446.262 446.262;" xml:space="preserve">
<g>
	<g>
		<path style="fill:#4D4D4D;" d="M135.831,343.991l-42.65,28.32l-35.72,35.72c-3.43-2.89-6.77-5.97-10.01-9.21
			c-3.24-3.24-6.32-6.59-9.22-10.02l35.72-35.72l28.32-42.65L135.831,343.991z"/>
		<path style="fill:#CC582F;" d="M438.191,30.551c0.76,0.75,0.76,1.98,0,2.74l-9.69,9.69l-9.67,9.68c-0.76,0.75-1.99,0.75-2.75,0
			l-22.48-22.49c-0.76-0.75-0.76-1.98,0-2.74l9.68-9.68l9.69-9.69c0.75-0.75,1.98-0.75,2.74,0L438.191,30.551z"/>
		<polygon style="fill:#4D4D4D;" points="291.231,180.321 210.111,267.091 179.171,236.141 265.941,155.021 395.911,33.521 
			412.741,50.351 		"/>
		<path style="fill:#CC582F;" d="M291.231,180.321c20.19,28.61,23.87,64.34,3.83,84.38c-8.8,8.8-16.7,14.33-24.66,18.03
			c-3.71,2.12-10.43,7.11-14.17,16.67c-1.3,3.32-5.96,3.36-7.35,0.08c-0.25-0.58-0.41-0.98-0.5-1.07c-0.8-1.91-1.98-3.44-3.56-4.52
			c-8.32-5.68-24.56,3.68-36.29,20.88c-11.71,17.21-14.47,35.75-6.16,41.41c0.98,0.68,4.19,2.12,7.34,3.47
			c2.23,0.96,2.57,3.78,1.05,5.3c-0.3,0.3-0.68,0.55-1.12,0.72c-8.94,3.59-15.98,10.89-18.95,20.06
			c-4.97,15.23-12.27,28.43-21.08,37.24c-27.66,27.67-74.84,16.68-112.15-14.94l35.72-35.72l42.65-28.32l-33.56-33.56l-28.32,42.65
			l-35.72,35.72c-31.62-37.31-42.61-84.49-14.95-112.15c8.82-8.82,22.02-16.11,37.27-21.06c4.85-1.58,9.18-4.3,12.71-7.83
			c3.15-3.15,5.64-6.93,7.33-11.14c1.08-2.7,4.87-2.73,6.02-0.08c1.36,3.17,2.8,6.38,3.46,7.35c5.68,8.32,24.22,5.56,41.41-6.16
			c17.22-11.72,26.57-27.98,20.9-36.29c-1.08-1.58-2.62-2.76-4.53-3.55c-0.08-0.08-0.48-0.25-1.07-0.52
			c-3.28-1.38-3.24-6.04,0.07-7.34c9.59-3.72,14.56-10.46,16.69-14.16c3.68-7.97,9.22-15.87,18.02-24.67
			c20.05-20.05,55.79-16.39,84.38,3.82l-86.77,81.12l30.94,30.95L291.231,180.321z"/>
	</g>
	<path style="fill:#FFFFFF;" d="M41.895,359.423c-2.667,0-5.249-1.426-6.605-3.937c-14.826-27.446-14.953-52.555-0.342-67.167
		c1.376-1.375,2.952-2.744,4.686-4.068c3.294-2.515,7.998-1.884,10.513,1.407c2.515,3.292,1.885,7.999-1.407,10.513
		c-1.207,0.922-2.277,1.848-3.184,2.754c-9.664,9.664-8.568,28.143,2.932,49.432c1.969,3.644,0.61,8.195-3.034,10.163
		C44.32,359.132,43.098,359.423,41.895,359.423z"/>
	<path style="fill:#FFFFFF;" d="M63.22,287.581c-3.402,0-6.435-2.384-7.267-5.676c-0.727-2.877,0.371-6.015,2.748-7.799
		c5.336-4.004,13.029,0.693,11.909,7.261C70.006,284.916,66.809,287.581,63.22,287.581z"/>
	<path style="fill:#FFFFFF;" d="M184.333,195.346c-1.269,0-2.555-0.322-3.733-1c-3.59-2.066-4.826-6.651-2.761-10.241l0.371-0.645
		l0.313-0.675c3.049-6.603,7.723-12.933,14.705-19.917c5.589-5.588,13.647-8.542,23.305-8.542c2.834,0,5.802,0.26,8.82,0.771
		c4.084,0.693,6.833,4.565,6.141,8.649c-0.692,4.083-4.567,6.832-8.648,6.14c-2.192-0.372-4.316-0.561-6.313-0.561
		c-3.9,0-9.27,0.72-12.698,4.148c-5.692,5.694-9.409,10.652-11.696,15.603l-0.454,0.982c-0.093,0.202-0.195,0.399-0.306,0.592
		l-0.537,0.934C189.454,193.996,186.929,195.346,184.333,195.346z"/>
	<g>
		<path style="fill:#333333;" d="M446.262,31.92c0-2.521-0.982-4.892-2.765-6.675L421.013,2.761
			c-3.68-3.679-9.668-3.679-13.35,0.001l-4.379,4.379l-0.22-0.22c-2.926-2.932-7.675-2.936-10.606-0.01
			c-2.932,2.926-2.937,7.675-0.011,10.607l0.23,0.231l-4.383,4.383c-2.746,2.748-3.438,6.784-2.081,10.184l-5.083,4.753
			l-0.998-0.998c-2.93-2.929-7.678-2.929-10.607,0c-2.929,2.929-2.929,7.677,0,10.606l0.642,0.642L265.146,145.5
			c-14.02-8.778-29.486-14.057-44.133-14.97c-17.852-1.113-33.735,4.345-44.756,15.365c-8.93,8.928-15.093,17.359-19.371,26.498
			c-1.712,2.883-5.547,7.85-12.772,10.657c-4.355,1.709-7.208,5.837-7.266,10.516c-0.058,4.656,2.657,8.837,6.926,10.68l0.404,0.181
			c0.257,0.145,0.523,0.275,0.798,0.388c0.867,0.36,1.124,0.736,1.204,0.854c0.771,1.131,0.421,4.397-2.169,8.897
			c-3.344,5.81-9.448,11.992-16.754,16.966c-7.289,4.973-15.271,8.39-21.899,9.375c-5.048,0.751-8.2-0.079-9.043-1.184
			c-0.156-0.279-0.892-1.655-2.819-6.146c-1.708-3.963-5.576-6.503-9.884-6.503c-0.048,0-0.096,0-0.143,0.001
			c-4.36,0.057-8.225,2.708-9.845,6.753c-1.315,3.282-3.223,6.187-5.671,8.635c-2.741,2.741-6.104,4.813-9.723,5.99
			c-16.813,5.458-30.731,13.374-40.25,22.892C1.967,287.359-3.605,310.423,2.291,336.29c4.862,21.326,17.093,43.244,34.677,62.401
			L2.612,433.047c-2.929,2.929-2.929,7.677,0,10.606c1.465,1.465,3.385,2.197,5.304,2.197s3.839-0.732,5.304-2.197l34.356-34.356
			c19.153,17.582,41.07,29.813,62.397,34.672c6.727,1.533,13.262,2.29,19.534,2.29c17.849,0,33.56-6.133,45.408-17.982
			c9.504-9.503,17.424-23.413,22.908-40.237c2.262-6.978,7.586-12.593,14.6-15.403c1.392-0.555,2.62-1.361,3.646-2.388
			c2.508-2.508,3.604-6.106,2.934-9.626c-0.668-3.5-3.026-6.437-6.336-7.869c-4.542-1.943-5.854-2.651-6.119-2.803
			c-2.98-2.191-2.129-15.805,8.184-30.953c4.976-7.301,11.16-13.405,16.968-16.747c4.5-2.59,7.768-2.939,8.893-2.172
			c0.124,0.085,0.502,0.343,0.861,1.21c0.113,0.272,0.242,0.537,0.386,0.792l0.165,0.376c1.841,4.288,6.022,7.015,10.698,6.955
			c4.675-0.061,8.801-2.914,10.515-7.28c2.837-7.264,7.795-11.063,10.657-12.742c9.148-4.303,17.576-10.472,26.491-19.389
			c11.017-11.016,16.47-26.91,15.355-44.752c-0.915-14.644-6.191-30.111-14.961-44.137l92.25-98.674l0.952,0.952
			c1.465,1.465,3.385,2.197,5.304,2.197s3.839-0.732,5.304-2.197c2.929-2.929,2.929-7.677,0-10.606l-1.31-1.309l10.687-11.431
			c1.125,0.449,2.318,0.675,3.512,0.675c2.417,0,4.835-0.92,6.676-2.76l4.375-4.375l0.229,0.229
			c1.465,1.465,3.384,2.197,5.304,2.197c1.919,0,3.839-0.732,5.303-2.197c2.93-2.929,2.93-7.678,0.001-10.607l-0.229-0.23
			l4.383-4.383C445.28,36.813,446.262,34.442,446.262,31.92z M428.959,31.92l-11.503,11.503l-14.62-14.62L414.338,17.3
			L428.959,31.92z M209.931,256.301l-19.974-19.974L395.734,43.949l6.577,6.577L209.931,256.301z M94.142,362.671l-10.55-10.55
			l19.859-29.907l20.599,20.598L94.142,362.671z M73.949,363.692l8.622,8.622l-25.419,25.419c-1.481-1.373-2.951-2.77-4.395-4.214
			c-1.449-1.449-2.849-2.923-4.226-4.408L73.949,363.692z M289.757,259.397c-7.736,7.737-14.892,12.992-22.518,16.538
			c-0.187,0.087-0.369,0.181-0.548,0.283c-3.674,2.091-9.812,6.48-14.456,14.309c-0.935-1.074-1.998-2.02-3.185-2.832
			c-6.531-4.456-15.354-3.903-24.836,1.557c-7.813,4.497-15.583,12.061-21.883,21.303c-14.493,21.29-16.293,43.571-4.208,51.813
			c0.229,0.156,0.498,0.33,0.854,0.536c-7.253,4.945-12.698,12.103-15.421,20.5c-4.684,14.369-11.52,26.539-19.249,34.268
			c-15.683,15.682-36.396,15.003-51.003,11.674C98.373,425.943,83,418.329,68.672,407.426l29.279-29.279l42.031-27.91
			c1.874-1.244,3.091-3.264,3.314-5.502s-0.569-4.459-2.159-6.049l-33.561-33.56c-1.591-1.591-3.814-2.382-6.05-2.159
			c-2.238,0.224-4.258,1.44-5.502,3.314l-27.909,42.031L38.837,377.59c-10.903-14.33-18.518-29.703-21.921-44.633
			c-3.331-14.613-4.011-35.323,11.672-51.005c7.738-7.739,19.91-14.568,34.278-19.233c5.861-1.907,11.289-5.244,15.694-9.65
			c1.784-1.784,3.386-3.717,4.798-5.786c0.2,0.347,0.368,0.61,0.521,0.832c4.454,6.529,12.866,9.238,23.685,7.629
			c8.921-1.326,18.917-5.525,28.141-11.817c9.24-6.291,16.808-14.061,21.307-21.878c5.459-9.484,6.014-18.303,1.558-24.838
			c-0.811-1.186-1.757-2.249-2.833-3.185c7.784-4.618,12.191-10.742,14.304-14.414c0.111-0.193,0.214-0.391,0.307-0.593
			c3.52-7.614,8.769-14.769,16.518-22.518c14.789-14.79,41.905-14.607,66.894-0.355l-79.71,74.521
			c-1.484,1.388-2.343,3.32-2.377,5.353c-0.034,2.033,0.758,3.992,2.195,5.429l30.943,30.943c1.408,1.408,3.316,2.197,5.304,2.197
			c0.042,0,0.084,0,0.126-0.001c2.033-0.034,3.964-0.892,5.353-2.377l74.517-79.706
			C304.349,217.505,304.534,244.621,289.757,259.397z"/>
		<path style="fill:#333333;" d="M192.798,283.243c-3.509-2.202-8.137-1.143-10.34,2.365c-2.202,3.508-1.144,8.137,2.365,10.34
			c0.114,0.072,0.148,0.222,0.077,0.335l-22.368,35.635c-2.164,3.448-2.856,7.534-1.948,11.503c0.908,3.969,3.308,7.347,6.756,9.511
			c1.239,0.778,2.618,1.149,3.98,1.149c2.495,0,4.935-1.245,6.359-3.514c2.202-3.508,1.143-8.137-2.365-10.339
			c-0.03-0.019-0.086-0.054-0.108-0.152c-0.022-0.098,0.013-0.154,0.031-0.183l22.368-35.635
			C202.074,297.138,199.917,287.711,192.798,283.243z"/>
		<path style="fill:#333333;" d="M163.02,253.464c-2.165-3.449-5.543-5.848-9.512-6.756c-3.971-0.908-8.055-0.216-11.503,1.949
			l-35.635,22.368c-0.029,0.019-0.087,0.054-0.184,0.031c-0.098-0.022-0.133-0.078-0.151-0.108
			c-2.202-3.509-6.831-4.568-10.34-2.365c-3.508,2.202-4.567,6.831-2.365,10.339c2.165,3.449,5.543,5.848,9.512,6.756
			c1.14,0.26,2.288,0.389,3.429,0.389c2.833,0,5.615-0.795,8.074-2.338l35.635-22.368c0.029-0.019,0.088-0.053,0.184-0.031
			c0.098,0.022,0.133,0.078,0.151,0.108c2.203,3.509,6.831,4.567,10.34,2.365C164.163,261.602,165.222,256.973,163.02,253.464z"/>
	</g>
</g>
<g>
</g>
<g>
</g>
<g>
</g>
<g>
</g>
<g>
</g>
<g>
</g>
<g>
</g>
<g>
</g>
<g>
</g>
<g>
</g>
<g>
</g>
<g>
</g>
<g>
</g>
<g>
</g>
<g>
</g>
</svg>
