<?xml version="1.0" encoding="iso-8859-1"?>
<!-- Generator: Adobe Illustrator 19.0.0, SVG Export Plug-In . SVG Version: 6.00 Build 0)  -->
<svg version="1.1" id="Layer_1" xmlns="http://www.w3.org/2000/svg" xmlns:xlink="http://www.w3.org/1999/xlink" x="0px" y="0px"
	 viewBox="0 0 435.213 435.213" style="enable-background:new 0 0 435.213 435.213;" xml:space="preserve">
<g>
	<polygon style="fill:#999999;" points="140.57,162.956 140.57,163.026 41.57,163.026 41.57,106.026 140.57,106.026 	"/>
	<polygon style="fill:#999999;" points="393.64,106.026 393.64,163.026 140.57,163.026 140.57,162.956 140.57,106.026 	"/>
	<polygon style="fill:#4D4D4D;" points="393.64,163.026 393.64,349.066 41.57,349.066 41.57,163.026 140.57,163.026 	"/>
	<path style="fill:#3A88D6;" d="M427.71,95.986v263.12c0,13.28-10.76,24.04-24.03,24.04H383H52.21H31.53
		c-13.27,0-24.03-10.76-24.03-24.04V95.986c0-13.27,10.76-24.03,24.03-24.03h119.08h134h119.07
		C416.95,71.956,427.71,82.716,427.71,95.986z M393.64,349.066v-186.04v-57H140.57h-99v57v186.04H393.64z"/>
	<polygon style="fill:#999999;" points="87.96,406.456 52.21,407.256 52.21,383.146 87.96,383.946 	"/>
	<polygon style="fill:#999999;" points="383,407.256 347.26,406.456 347.26,383.946 383,383.146 	"/>
	<path style="fill:#4D4D4D;" d="M284.61,33.976v15.55h-134v-15.55c0-3.33,2.69-6.02,6.01-6.02h121.97
		C281.91,27.956,284.61,30.646,284.61,33.976z"/>
	<g>
		<path style="fill:#333333;" d="M403.682,64.457H292.106V33.972c0-7.453-6.063-13.516-13.516-13.516H156.622
			c-7.453,0-13.516,6.063-13.516,13.516v30.484H31.532C14.145,64.457,0,78.602,0,95.989V359.11
			c0,17.387,14.145,31.532,31.532,31.532h13.183v16.615c0,2.018,0.813,3.952,2.257,5.363c1.403,1.372,3.285,2.137,5.243,2.137
			c0.056,0,0.112-0.001,0.169-0.002l35.743-0.804c4.075-0.092,7.331-3.422,7.331-7.498v-15.81h244.298v15.81
			c0,4.076,3.256,7.406,7.331,7.498l35.743,0.804c0.057,0.001,0.113,0.002,0.169,0.002c1.958,0,3.84-0.766,5.243-2.137
			c1.443-1.411,2.257-3.344,2.257-5.363v-16.615h13.183c17.387,0,31.532-14.145,31.532-31.532V95.989
			C435.213,78.602,421.068,64.457,403.682,64.457z M80.458,399.119l-20.743,0.467v-8.773l20.743,0.467V399.119z M375.499,399.586
			l-20.743-0.467v-7.84l20.743-0.467V399.586z M277.106,35.457v6.57h-119v-6.57H277.106z M158.106,57.027h119v7.43h-119V57.027z
			 M420.213,359.11c0,9.116-7.416,16.532-16.532,16.532H31.532c-9.116,0-16.532-7.416-16.532-16.532V95.989
			c0-9.116,7.416-16.532,16.532-16.532h372.15c9.116,0,16.532,7.416,16.532,16.532V359.11z"/>
		<path style="fill:#333333;" d="M393.642,98.528H41.571c-4.142,0-7.5,3.358-7.5,7.5v243.042c0,4.142,3.358,7.5,7.5,7.5h352.071
			c4.142,0,7.5-3.358,7.5-7.5V106.028C401.142,101.886,397.784,98.528,393.642,98.528z M386.142,155.528H148.071v-42h238.071
			V155.528z M133.071,113.528v42h-84v-42H133.071z M49.071,341.571V170.528h337.071v171.042H49.071z"/>
		<path style="fill:#333333;" d="M172.45,135.956c1.384,6.636,10.505,8.188,13.877,2.236c1.539-2.716,1.209-6.188-0.816-8.572
			c-1.983-2.335-5.291-3.204-8.171-2.201C173.829,128.642,171.769,132.317,172.45,135.956
			C172.55,136.436,172.36,135.476,172.45,135.956z"/>
		<path style="fill:#333333;" d="M206.08,137.356c2.478,6,11.189,6.053,13.791,0.136c1.333-3.032,0.458-6.699-2.108-8.798
			c-2.35-1.922-5.682-2.22-8.346-0.783C206.109,129.696,204.614,133.884,206.08,137.356
			C206.27,137.816,205.89,136.906,206.08,137.356z"/>
		<path style="fill:#333333;" d="M239.28,137.366c1.316,3.117,4.658,5.064,8.028,4.546c3.111-0.479,5.623-2.873,6.252-5.956
			c0.6-2.943-0.698-6.035-3.19-7.7c-2.963-1.98-6.934-1.535-9.47,0.93C238.802,131.343,238.125,134.568,239.28,137.366
			C239.47,137.816,239.09,136.906,239.28,137.366z"/>
		<path style="fill:#333333;" d="M275.24,140.726c4.854,3.195,11.542-0.239,11.667-6.075c0.143-6.674-8.088-10.046-12.807-5.465
			C270.879,132.504,271.319,138.144,275.24,140.726z"/>
		<path style="fill:#333333;" d="M305.68,137.366c1.338,3.169,4.752,5.104,8.164,4.525c3.051-0.518,5.497-2.908,6.115-5.936
			c0.646-3.167-0.926-6.51-3.764-8.044c-2.92-1.578-6.522-1.03-8.895,1.274C305.202,131.343,304.525,134.569,305.68,137.366
			C305.87,137.816,305.49,136.906,305.68,137.366z"/>
		<path style="fill:#333333;" d="M338.88,137.366c1.295,3.068,4.534,4.993,7.858,4.571c3.179-0.404,5.782-2.846,6.422-5.981
			c0.669-3.278-1.039-6.717-4.036-8.184c-2.883-1.411-6.332-0.812-8.624,1.414C338.405,131.344,337.722,134.569,338.88,137.366
			C339.07,137.816,338.689,136.906,338.88,137.366z"/>
		<path style="fill:#333333;" d="M75.807,141.992h33c4.142,0,7.5-3.358,7.5-7.5s-3.358-7.5-7.5-7.5h-33c-4.142,0-7.5,3.358-7.5,7.5
			S71.665,141.992,75.807,141.992z"/>
		<path style="fill:#333333;" d="M367.606,186.457h-300c-4.142,0-7.5,3.358-7.5,7.5s3.358,7.5,7.5,7.5h300
			c4.142,0,7.5-3.358,7.5-7.5S371.749,186.457,367.606,186.457z"/>
		<path style="fill:#333333;" d="M367.606,216.957h-46c-4.142,0-7.5,3.358-7.5,7.5s3.358,7.5,7.5,7.5h46c4.142,0,7.5-3.358,7.5-7.5
			S371.749,216.957,367.606,216.957z"/>
		<path style="fill:#333333;" d="M67.606,231.957h221c4.142,0,7.5-3.358,7.5-7.5s-3.358-7.5-7.5-7.5h-221
			c-4.142,0-7.5,3.358-7.5,7.5S63.464,231.957,67.606,231.957z"/>
		<path style="fill:#333333;" d="M367.606,247.457h-300c-4.142,0-7.5,3.358-7.5,7.5s3.358,7.5,7.5,7.5h300
			c4.142,0,7.5-3.358,7.5-7.5S371.749,247.457,367.606,247.457z"/>
		<path style="fill:#333333;" d="M367.606,277.957h-196c-4.142,0-7.5,3.358-7.5,7.5s3.358,7.5,7.5,7.5h196
			c4.142,0,7.5-3.358,7.5-7.5S371.749,277.957,367.606,277.957z"/>
		<path style="fill:#333333;" d="M67.606,292.957h71c4.142,0,7.5-3.358,7.5-7.5s-3.358-7.5-7.5-7.5h-71c-4.142,0-7.5,3.358-7.5,7.5
			S63.464,292.957,67.606,292.957z"/>
		<path style="fill:#333333;" d="M367.606,308.457h-18c-4.142,0-7.5,3.358-7.5,7.5s3.358,7.5,7.5,7.5h18c4.142,0,7.5-3.358,7.5-7.5
			S371.749,308.457,367.606,308.457z"/>
		<path style="fill:#333333;" d="M324.607,308.457h-257c-4.142,0-7.5,3.358-7.5,7.5s3.358,7.5,7.5,7.5h257
			c4.142,0,7.5-3.358,7.5-7.5S328.749,308.457,324.607,308.457z"/>
	</g>
	<path style="fill:#FFFFFF;" d="M382.08,106.446H214.92c-4.142,0-7.5-3.358-7.5-7.5s3.358-7.5,7.5-7.5h167.16
		c4.142,0,7.5,3.358,7.5,7.5S386.222,106.446,382.08,106.446z"/>
	<path style="fill:#FFFFFF;" d="M188.92,106.446h-18c-4.142,0-7.5-3.358-7.5-7.5s3.358-7.5,7.5-7.5h18c4.142,0,7.5,3.358,7.5,7.5
		S193.062,106.446,188.92,106.446z"/>
</g>
<g>
</g>
<g>
</g>
<g>
</g>
<g>
</g>
<g>
</g>
<g>
</g>
<g>
</g>
<g>
</g>
<g>
</g>
<g>
</g>
<g>
</g>
<g>
</g>
<g>
</g>
<g>
</g>
<g>
</g>
</svg>
